<?xml version="1.0" encoding="utf-8" standalone="no"?>
<!DOCTYPE svg PUBLIC "-//W3C//DTD SVG 1.1//EN"
  "http://www.w3.org/Graphics/SVG/1.1/DTD/svg11.dtd">
<svg xmlns:xlink="http://www.w3.org/1999/xlink" width="1728pt" height="360pt" viewBox="0 0 1728 360" xmlns="http://www.w3.org/2000/svg" version="1.1">
 <metadata>
  <rdf:RDF xmlns:dc="http://purl.org/dc/elements/1.1/" xmlns:cc="http://creativecommons.org/ns#" xmlns:rdf="http://www.w3.org/1999/02/22-rdf-syntax-ns#">
   <cc:Work>
    <dc:type rdf:resource="http://purl.org/dc/dcmitype/StillImage"/>
    <dc:date>2026-04-15T12:52:08.098959</dc:date>
    <dc:format>image/svg+xml</dc:format>
    <dc:creator>
     <cc:Agent>
      <dc:title>Matplotlib v3.10.8, https://matplotlib.org/</dc:title>
     </cc:Agent>
    </dc:creator>
   </cc:Work>
  </rdf:RDF>
 </metadata>
 <defs>
  <style type="text/css">*{stroke-linejoin: round; stroke-linecap: butt}</style>
 </defs>
 <g id="figure_1">
  <g id="patch_1">
   <path d="M 0 360 
L 1728 360 
L 1728 0 
L 0 0 
z
" style="fill: #ffffff"/>
  </g>
  <g id="axes_1">
   <g id="patch_2">
    <path d="M 87.80087 270.43776 
L 427.667344 270.43776 
L 427.667344 64.08 
L 87.80087 64.08 
z
" style="fill: #ffffff"/>
   </g>
   <g id="matplotlib.axis_1">
    <g id="xtick_1">
     <g id="text_1">
      <!-- $\mathdefault{10^{4}}$ -->
      <g style="fill: #262626" transform="translate(120.92596 303.75596) scale(0.2688 -0.2688)">
       <defs>
        <path id="TimesNewRomanPSMT-31" d="M 750 3822 
L 1781 4325 
L 1884 4325 
L 1884 747 
Q 1884 391 1914 303 
Q 1944 216 2037 169 
Q 2131 122 2419 116 
L 2419 0 
L 825 0 
L 825 116 
Q 1125 122 1212 167 
Q 1300 213 1334 289 
Q 1369 366 1369 747 
L 1369 3034 
Q 1369 3497 1338 3628 
Q 1316 3728 1258 3775 
Q 1200 3822 1119 3822 
Q 1003 3822 797 3725 
L 750 3822 
z
" transform="scale(0.015625)"/>
        <path id="TimesNewRomanPSMT-30" d="M 231 2094 
Q 231 2819 450 3342 
Q 669 3866 1031 4122 
Q 1313 4325 1613 4325 
Q 2100 4325 2488 3828 
Q 2972 3213 2972 2159 
Q 2972 1422 2759 906 
Q 2547 391 2217 158 
Q 1888 -75 1581 -75 
Q 975 -75 572 641 
Q 231 1244 231 2094 
z
M 844 2016 
Q 844 1141 1059 588 
Q 1238 122 1591 122 
Q 1759 122 1940 273 
Q 2122 425 2216 781 
Q 2359 1319 2359 2297 
Q 2359 3022 2209 3506 
Q 2097 3866 1919 4016 
Q 1791 4119 1609 4119 
Q 1397 4119 1231 3928 
Q 1006 3669 925 3112 
Q 844 2556 844 2016 
z
" transform="scale(0.015625)"/>
        <path id="TimesNewRomanPSMT-34" d="M 2978 1563 
L 2978 1119 
L 2409 1119 
L 2409 0 
L 1894 0 
L 1894 1119 
L 100 1119 
L 100 1519 
L 2066 4325 
L 2409 4325 
L 2409 1563 
L 2978 1563 
z
M 1894 1563 
L 1894 3666 
L 406 1563 
L 1894 1563 
z
" transform="scale(0.015625)"/>
       </defs>
       <use xlink:href="#TimesNewRomanPSMT-31" transform="translate(0 0.582813)"/>
       <use xlink:href="#TimesNewRomanPSMT-30" transform="translate(50 0.582813)"/>
       <use xlink:href="#TimesNewRomanPSMT-34" transform="translate(101.502813 60.695312) scale(0.7)"/>
      </g>
     </g>
    </g>
    <g id="xtick_2">
     <g id="text_2">
      <!-- $\mathdefault{10^{5}}$ -->
      <g style="fill: #262626" transform="translate(229.995333 303.48716) scale(0.2688 -0.2688)">
       <defs>
        <path id="TimesNewRomanPSMT-35" d="M 2778 4238 
L 2534 3706 
L 1259 3706 
L 981 3138 
Q 1809 3016 2294 2522 
Q 2709 2097 2709 1522 
Q 2709 1188 2573 903 
Q 2438 619 2231 419 
Q 2025 219 1772 97 
Q 1413 -75 1034 -75 
Q 653 -75 479 54 
Q 306 184 306 341 
Q 306 428 378 495 
Q 450 563 559 563 
Q 641 563 702 538 
Q 763 513 909 409 
Q 1144 247 1384 247 
Q 1750 247 2026 523 
Q 2303 800 2303 1197 
Q 2303 1581 2056 1914 
Q 1809 2247 1375 2428 
Q 1034 2569 447 2591 
L 1259 4238 
L 2778 4238 
z
" transform="scale(0.015625)"/>
       </defs>
       <use xlink:href="#TimesNewRomanPSMT-31" transform="translate(0 0.534375)"/>
       <use xlink:href="#TimesNewRomanPSMT-30" transform="translate(50 0.534375)"/>
       <use xlink:href="#TimesNewRomanPSMT-35" transform="translate(101.502813 60.646875) scale(0.7)"/>
      </g>
     </g>
    </g>
    <g id="xtick_3">
     <g id="text_3">
      <!-- $\mathdefault{10^{6}}$ -->
      <g style="fill: #262626" transform="translate(339.064706 303.75596) scale(0.2688 -0.2688)">
       <defs>
        <path id="TimesNewRomanPSMT-36" d="M 2869 4325 
L 2869 4209 
Q 2456 4169 2195 4045 
Q 1934 3922 1679 3669 
Q 1425 3416 1258 3105 
Q 1091 2794 978 2366 
Q 1428 2675 1881 2675 
Q 2316 2675 2634 2325 
Q 2953 1975 2953 1425 
Q 2953 894 2631 456 
Q 2244 -75 1606 -75 
Q 1172 -75 869 213 
Q 275 772 275 1663 
Q 275 2231 503 2743 
Q 731 3256 1154 3653 
Q 1578 4050 1965 4187 
Q 2353 4325 2688 4325 
L 2869 4325 
z
M 925 2138 
Q 869 1716 869 1456 
Q 869 1156 980 804 
Q 1091 453 1309 247 
Q 1469 100 1697 100 
Q 1969 100 2183 356 
Q 2397 613 2397 1088 
Q 2397 1622 2184 2012 
Q 1972 2403 1581 2403 
Q 1463 2403 1327 2353 
Q 1191 2303 925 2138 
z
" transform="scale(0.015625)"/>
       </defs>
       <use xlink:href="#TimesNewRomanPSMT-31" transform="translate(0 0.582813)"/>
       <use xlink:href="#TimesNewRomanPSMT-30" transform="translate(50 0.582813)"/>
       <use xlink:href="#TimesNewRomanPSMT-36" transform="translate(101.502813 60.695312) scale(0.7)"/>
      </g>
     </g>
    </g>
    <g id="xtick_4"/>
    <g id="xtick_5"/>
    <g id="xtick_6"/>
    <g id="xtick_7"/>
    <g id="xtick_8"/>
    <g id="xtick_9"/>
    <g id="xtick_10"/>
    <g id="xtick_11"/>
    <g id="xtick_12"/>
    <g id="xtick_13"/>
    <g id="xtick_14"/>
    <g id="xtick_15"/>
    <g id="xtick_16"/>
    <g id="xtick_17"/>
    <g id="xtick_18"/>
    <g id="xtick_19"/>
    <g id="xtick_20"/>
    <g id="xtick_21"/>
    <g id="xtick_22"/>
    <g id="xtick_23"/>
    <g id="xtick_24"/>
    <g id="xtick_25"/>
    <g id="xtick_26"/>
    <g id="xtick_27"/>
    <g id="xtick_28"/>
    <g id="text_4">
     <!-- #entries -->
     <g style="fill: #262626" transform="translate(209.869857 334.50366) scale(0.3024 -0.3024)">
      <defs>
       <path id="TimesNewRomanPSMT-23" d="M 359 -88 
L 650 1334 
L 116 1334 
L 116 1591 
L 700 1591 
L 916 2663 
L 116 2663 
L 116 2913 
L 975 2913 
L 1259 4334 
L 1519 4334 
L 1234 2913 
L 2288 2913 
L 2591 4334 
L 2850 4334 
L 2553 2913 
L 3084 2913 
L 3084 2663 
L 2506 2663 
L 2288 1591 
L 3084 1591 
L 3084 1334 
L 2234 1334 
L 1944 -88 
L 1691 -88 
L 1975 1334 
L 916 1334 
L 619 -88 
L 359 -88 
z
M 963 1591 
L 2022 1591 
L 2247 2663 
L 1181 2663 
L 963 1591 
z
" transform="scale(0.015625)"/>
       <path id="TimesNewRomanPSMT-65" d="M 681 1784 
Q 678 1147 991 784 
Q 1303 422 1725 422 
Q 2006 422 2214 576 
Q 2422 731 2563 1106 
L 2659 1044 
Q 2594 616 2278 264 
Q 1963 -88 1488 -88 
Q 972 -88 605 314 
Q 238 716 238 1394 
Q 238 2128 614 2539 
Q 991 2950 1559 2950 
Q 2041 2950 2350 2633 
Q 2659 2316 2659 1784 
L 681 1784 
z
M 681 1966 
L 2006 1966 
Q 1991 2241 1941 2353 
Q 1863 2528 1708 2628 
Q 1553 2728 1384 2728 
Q 1125 2728 920 2526 
Q 716 2325 681 1966 
z
" transform="scale(0.015625)"/>
       <path id="TimesNewRomanPSMT-6e" d="M 1034 2341 
Q 1538 2947 1994 2947 
Q 2228 2947 2397 2830 
Q 2566 2713 2666 2444 
Q 2734 2256 2734 1869 
L 2734 647 
Q 2734 375 2778 278 
Q 2813 200 2889 156 
Q 2966 113 3172 113 
L 3172 0 
L 1756 0 
L 1756 113 
L 1816 113 
Q 2016 113 2095 173 
Q 2175 234 2206 353 
Q 2219 400 2219 647 
L 2219 1819 
Q 2219 2209 2117 2386 
Q 2016 2563 1775 2563 
Q 1403 2563 1034 2156 
L 1034 647 
Q 1034 356 1069 288 
Q 1113 197 1189 155 
Q 1266 113 1500 113 
L 1500 0 
L 84 0 
L 84 113 
L 147 113 
Q 366 113 442 223 
Q 519 334 519 647 
L 519 1709 
Q 519 2225 495 2337 
Q 472 2450 423 2490 
Q 375 2531 294 2531 
Q 206 2531 84 2484 
L 38 2597 
L 900 2947 
L 1034 2947 
L 1034 2341 
z
" transform="scale(0.015625)"/>
       <path id="TimesNewRomanPSMT-74" d="M 1031 3803 
L 1031 2863 
L 1700 2863 
L 1700 2644 
L 1031 2644 
L 1031 788 
Q 1031 509 1111 412 
Q 1191 316 1316 316 
Q 1419 316 1516 380 
Q 1613 444 1666 569 
L 1788 569 
Q 1678 263 1478 108 
Q 1278 -47 1066 -47 
Q 922 -47 784 33 
Q 647 113 581 261 
Q 516 409 516 719 
L 516 2644 
L 63 2644 
L 63 2747 
Q 234 2816 414 2980 
Q 594 3144 734 3369 
Q 806 3488 934 3803 
L 1031 3803 
z
" transform="scale(0.015625)"/>
       <path id="TimesNewRomanPSMT-72" d="M 1038 2947 
L 1038 2303 
Q 1397 2947 1775 2947 
Q 1947 2947 2059 2842 
Q 2172 2738 2172 2600 
Q 2172 2478 2090 2393 
Q 2009 2309 1897 2309 
Q 1788 2309 1652 2417 
Q 1516 2525 1450 2525 
Q 1394 2525 1328 2463 
Q 1188 2334 1038 2041 
L 1038 669 
Q 1038 431 1097 309 
Q 1138 225 1241 169 
Q 1344 113 1538 113 
L 1538 0 
L 72 0 
L 72 113 
Q 291 113 397 181 
Q 475 231 506 341 
Q 522 394 522 644 
L 522 1753 
Q 522 2253 501 2348 
Q 481 2444 426 2487 
Q 372 2531 291 2531 
Q 194 2531 72 2484 
L 41 2597 
L 906 2947 
L 1038 2947 
z
" transform="scale(0.015625)"/>
       <path id="TimesNewRomanPSMT-69" d="M 928 4444 
Q 1059 4444 1151 4351 
Q 1244 4259 1244 4128 
Q 1244 3997 1151 3903 
Q 1059 3809 928 3809 
Q 797 3809 703 3903 
Q 609 3997 609 4128 
Q 609 4259 701 4351 
Q 794 4444 928 4444 
z
M 1188 2947 
L 1188 647 
Q 1188 378 1227 289 
Q 1266 200 1342 156 
Q 1419 113 1622 113 
L 1622 0 
L 231 0 
L 231 113 
Q 441 113 512 153 
Q 584 194 626 287 
Q 669 381 669 647 
L 669 1750 
Q 669 2216 641 2353 
Q 619 2453 572 2492 
Q 525 2531 444 2531 
Q 356 2531 231 2484 
L 188 2597 
L 1050 2947 
L 1188 2947 
z
" transform="scale(0.015625)"/>
       <path id="TimesNewRomanPSMT-73" d="M 2050 2947 
L 2050 1972 
L 1947 1972 
Q 1828 2431 1642 2597 
Q 1456 2763 1169 2763 
Q 950 2763 815 2647 
Q 681 2531 681 2391 
Q 681 2216 781 2091 
Q 878 1963 1175 1819 
L 1631 1597 
Q 2266 1288 2266 781 
Q 2266 391 1970 151 
Q 1675 -88 1309 -88 
Q 1047 -88 709 6 
Q 606 38 541 38 
Q 469 38 428 -44 
L 325 -44 
L 325 978 
L 428 978 
Q 516 541 762 319 
Q 1009 97 1316 97 
Q 1531 97 1667 223 
Q 1803 350 1803 528 
Q 1803 744 1651 891 
Q 1500 1038 1047 1263 
Q 594 1488 453 1669 
Q 313 1847 313 2119 
Q 313 2472 555 2709 
Q 797 2947 1181 2947 
Q 1350 2947 1591 2875 
Q 1750 2828 1803 2828 
Q 1853 2828 1881 2850 
Q 1909 2872 1947 2947 
L 2050 2947 
z
" transform="scale(0.015625)"/>
      </defs>
      <use xlink:href="#TimesNewRomanPSMT-23"/>
      <use xlink:href="#TimesNewRomanPSMT-65" transform="translate(50 0)"/>
      <use xlink:href="#TimesNewRomanPSMT-6e" transform="translate(94.384766 0)"/>
      <use xlink:href="#TimesNewRomanPSMT-74" transform="translate(144.384766 0)"/>
      <use xlink:href="#TimesNewRomanPSMT-72" transform="translate(172.167969 0)"/>
      <use xlink:href="#TimesNewRomanPSMT-69" transform="translate(205.46875 0)"/>
      <use xlink:href="#TimesNewRomanPSMT-65" transform="translate(233.251953 0)"/>
      <use xlink:href="#TimesNewRomanPSMT-73" transform="translate(277.636719 0)"/>
     </g>
    </g>
   </g>
   <g id="matplotlib.axis_2">
    <g id="ytick_1">
     <g id="text_5">
      <!-- 0 -->
      <g style="fill: #262626" transform="translate(64.86087 279.77016) scale(0.2688 -0.2688)">
       <use xlink:href="#TimesNewRomanPSMT-30"/>
      </g>
     </g>
    </g>
    <g id="ytick_2">
     <g id="text_6">
      <!-- 10 -->
      <g style="fill: #262626" transform="translate(51.42087 187.7067) scale(0.2688 -0.2688)">
       <use xlink:href="#TimesNewRomanPSMT-31"/>
       <use xlink:href="#TimesNewRomanPSMT-30" transform="translate(50 0)"/>
      </g>
     </g>
    </g>
    <g id="ytick_3">
     <g id="text_7">
      <!-- 20 -->
      <g style="fill: #262626" transform="translate(51.42087 95.64324) scale(0.2688 -0.2688)">
       <defs>
        <path id="TimesNewRomanPSMT-32" d="M 2934 816 
L 2638 0 
L 138 0 
L 138 116 
Q 1241 1122 1691 1759 
Q 2141 2397 2141 2925 
Q 2141 3328 1894 3587 
Q 1647 3847 1303 3847 
Q 991 3847 742 3664 
Q 494 3481 375 3128 
L 259 3128 
Q 338 3706 661 4015 
Q 984 4325 1469 4325 
Q 1984 4325 2329 3994 
Q 2675 3663 2675 3213 
Q 2675 2891 2525 2569 
Q 2294 2063 1775 1497 
Q 997 647 803 472 
L 1909 472 
Q 2247 472 2383 497 
Q 2519 522 2628 598 
Q 2738 675 2819 816 
L 2934 816 
z
" transform="scale(0.015625)"/>
       </defs>
       <use xlink:href="#TimesNewRomanPSMT-32"/>
       <use xlink:href="#TimesNewRomanPSMT-30" transform="translate(50 0)"/>
      </g>
     </g>
    </g>
    <g id="text_8">
     <!-- max memory (bits/entry) -->
     <g style="fill: #262626" transform="translate(27.622034 325.020523) rotate(-90) scale(0.2688 -0.2688)">
      <defs>
       <path id="TimesNewRomanPS-BoldMT-6d" d="M 1428 2922 
L 1428 2538 
Q 1669 2800 1873 2904 
Q 2078 3009 2322 3009 
Q 2603 3009 2793 2878 
Q 2984 2747 3088 2478 
Q 3338 2759 3567 2884 
Q 3797 3009 4047 3009 
Q 4350 3009 4529 2870 
Q 4709 2731 4779 2517 
Q 4850 2303 4850 1834 
L 4850 638 
Q 4850 300 4911 219 
Q 4972 138 5166 113 
L 5166 0 
L 3656 0 
L 3656 113 
Q 3834 128 3919 250 
Q 3975 334 3975 638 
L 3975 1894 
Q 3975 2284 3944 2390 
Q 3913 2497 3845 2548 
Q 3778 2600 3688 2600 
Q 3553 2600 3415 2501 
Q 3278 2403 3138 2206 
L 3138 638 
Q 3138 322 3191 241 
Q 3263 125 3466 113 
L 3466 0 
L 1953 0 
L 1953 113 
Q 2075 119 2145 173 
Q 2216 228 2239 304 
Q 2263 381 2263 638 
L 2263 1894 
Q 2263 2291 2231 2391 
Q 2200 2491 2126 2547 
Q 2053 2603 1969 2603 
Q 1844 2603 1741 2538 
Q 1594 2441 1428 2206 
L 1428 638 
Q 1428 328 1489 229 
Q 1550 131 1744 113 
L 1744 0 
L 238 0 
L 238 113 
Q 422 131 500 231 
Q 553 300 553 638 
L 553 2288 
Q 553 2619 492 2700 
Q 431 2781 238 2806 
L 238 2922 
L 1428 2922 
z
" transform="scale(0.015625)"/>
       <path id="TimesNewRomanPS-BoldMT-61" d="M 1828 431 
Q 1294 -41 869 -41 
Q 619 -41 453 123 
Q 288 288 288 534 
Q 288 869 575 1136 
Q 863 1403 1828 1847 
L 1828 2141 
Q 1828 2472 1792 2558 
Q 1756 2644 1656 2708 
Q 1556 2772 1431 2772 
Q 1228 2772 1097 2681 
Q 1016 2625 1016 2550 
Q 1016 2484 1103 2388 
Q 1222 2253 1222 2128 
Q 1222 1975 1108 1867 
Q 994 1759 809 1759 
Q 613 1759 480 1878 
Q 347 1997 347 2156 
Q 347 2381 525 2586 
Q 703 2791 1022 2900 
Q 1341 3009 1684 3009 
Q 2100 3009 2342 2832 
Q 2584 2656 2656 2450 
Q 2700 2319 2700 1847 
L 2700 713 
Q 2700 513 2715 461 
Q 2731 409 2762 384 
Q 2794 359 2834 359 
Q 2916 359 3000 475 
L 3094 400 
Q 2938 169 2770 64 
Q 2603 -41 2391 -41 
Q 2141 -41 2000 76 
Q 1859 194 1828 431 
z
M 1828 659 
L 1828 1638 
Q 1450 1416 1266 1163 
Q 1144 994 1144 822 
Q 1144 678 1247 569 
Q 1325 484 1466 484 
Q 1622 484 1828 659 
z
" transform="scale(0.015625)"/>
       <path id="TimesNewRomanPS-BoldMT-78" d="M 1944 1791 
L 2450 828 
Q 2713 325 2866 191 
Q 2950 119 3097 113 
L 3097 0 
L 1469 0 
L 1469 113 
Q 1659 128 1704 162 
Q 1750 197 1750 256 
Q 1750 344 1650 531 
L 1397 1006 
L 1181 691 
Q 1034 475 1016 434 
Q 991 375 991 328 
Q 991 256 1020 207 
Q 1050 159 1101 136 
Q 1153 113 1291 113 
L 1291 0 
L 147 0 
L 147 113 
Q 359 113 536 230 
Q 713 347 1050 844 
L 1291 1200 
L 788 2131 
Q 541 2588 419 2691 
Q 297 2794 147 2806 
L 147 2922 
L 1766 2922 
L 1766 2806 
L 1681 2803 
L 1519 2747 
Q 1494 2725 1494 2675 
Q 1494 2628 1509 2578 
Q 1519 2556 1597 2409 
L 1825 1984 
L 1944 2153 
Q 2194 2497 2194 2634 
Q 2194 2700 2139 2745 
Q 2084 2791 1944 2806 
L 1944 2922 
L 2978 2922 
L 2978 2806 
Q 2788 2800 2622 2689 
Q 2456 2578 2250 2259 
L 1944 1791 
z
" transform="scale(0.015625)"/>
       <path id="TimesNewRomanPS-BoldMT-20" transform="scale(0.015625)"/>
       <path id="TimesNewRomanPS-BoldMT-65" d="M 2691 1566 
L 1088 1566 
Q 1116 984 1397 647 
Q 1613 388 1916 388 
Q 2103 388 2256 492 
Q 2409 597 2584 869 
L 2691 800 
Q 2453 316 2165 114 
Q 1878 -88 1500 -88 
Q 850 -88 516 413 
Q 247 816 247 1413 
Q 247 2144 642 2576 
Q 1038 3009 1569 3009 
Q 2013 3009 2339 2645 
Q 2666 2281 2691 1566 
z
M 1922 1775 
Q 1922 2278 1867 2465 
Q 1813 2653 1697 2750 
Q 1631 2806 1522 2806 
Q 1359 2806 1256 2647 
Q 1072 2369 1072 1884 
L 1072 1775 
L 1922 1775 
z
" transform="scale(0.015625)"/>
       <path id="TimesNewRomanPS-BoldMT-6f" d="M 1594 3009 
Q 1975 3009 2303 2812 
Q 2631 2616 2801 2253 
Q 2972 1891 2972 1459 
Q 2972 838 2656 419 
Q 2275 -88 1603 -88 
Q 944 -88 587 375 
Q 231 838 231 1447 
Q 231 2075 595 2542 
Q 959 3009 1594 3009 
z
M 1606 2788 
Q 1447 2788 1333 2667 
Q 1219 2547 1183 2192 
Q 1147 1838 1147 1206 
Q 1147 872 1191 581 
Q 1225 359 1337 243 
Q 1450 128 1594 128 
Q 1734 128 1828 206 
Q 1950 313 1991 503 
Q 2053 800 2053 1703 
Q 2053 2234 1993 2432 
Q 1934 2631 1819 2722 
Q 1738 2788 1606 2788 
z
" transform="scale(0.015625)"/>
       <path id="TimesNewRomanPS-BoldMT-72" d="M 1428 2922 
L 1428 2259 
Q 1719 2713 1937 2861 
Q 2156 3009 2359 3009 
Q 2534 3009 2639 2901 
Q 2744 2794 2744 2597 
Q 2744 2388 2642 2272 
Q 2541 2156 2397 2156 
Q 2231 2156 2109 2262 
Q 1988 2369 1966 2381 
Q 1934 2400 1894 2400 
Q 1803 2400 1722 2331 
Q 1594 2225 1528 2028 
Q 1428 1725 1428 1359 
L 1428 688 
L 1431 513 
Q 1431 334 1453 284 
Q 1491 200 1564 161 
Q 1638 122 1813 113 
L 1813 0 
L 234 0 
L 234 113 
Q 425 128 492 217 
Q 559 306 559 688 
L 559 2303 
Q 559 2553 534 2622 
Q 503 2709 443 2750 
Q 384 2791 234 2806 
L 234 2922 
L 1428 2922 
z
" transform="scale(0.015625)"/>
       <path id="TimesNewRomanPS-BoldMT-79" d="M 1556 -119 
L 613 2047 
Q 400 2538 298 2650 
Q 197 2763 53 2806 
L 53 2922 
L 1606 2922 
L 1606 2806 
Q 1453 2800 1390 2747 
Q 1328 2694 1328 2619 
Q 1328 2500 1484 2150 
L 1984 1006 
L 2325 1891 
Q 2509 2363 2509 2547 
Q 2509 2663 2432 2731 
Q 2356 2800 2163 2806 
L 2163 2922 
L 3141 2922 
L 3141 2806 
Q 2997 2791 2906 2695 
Q 2816 2600 2603 2047 
L 1769 -119 
Q 1453 -931 1300 -1119 
Q 1084 -1381 759 -1381 
Q 500 -1381 339 -1232 
Q 178 -1084 178 -875 
Q 178 -694 289 -575 
Q 400 -456 563 -456 
Q 719 -456 814 -556 
Q 909 -656 913 -866 
Q 916 -984 941 -1019 
Q 966 -1053 1013 -1053 
Q 1088 -1053 1172 -963 
Q 1297 -831 1466 -363 
L 1556 -119 
z
" transform="scale(0.015625)"/>
       <path id="TimesNewRomanPS-BoldMT-28" d="M 2056 4334 
L 2056 4191 
Q 1731 3978 1578 3775 
Q 1366 3494 1247 3053 
Q 1097 2506 1097 1525 
Q 1097 600 1233 87 
Q 1369 -425 1603 -741 
Q 1766 -959 2056 -1125 
L 2056 -1281 
Q 1303 -1028 779 -248 
Q 256 531 256 1544 
Q 256 2544 778 3314 
Q 1300 4084 2056 4334 
z
" transform="scale(0.015625)"/>
       <path id="TimesNewRomanPS-BoldMT-62" d="M 1347 4238 
L 1347 2628 
Q 1716 3009 2153 3009 
Q 2453 3009 2718 2832 
Q 2984 2656 3134 2331 
Q 3284 2006 3284 1581 
Q 3284 1103 3093 712 
Q 2903 322 2584 117 
Q 2266 -88 1856 -88 
Q 1619 -88 1434 -12 
Q 1250 63 1072 231 
L 588 -84 
L 481 -84 
L 481 3631 
Q 481 3884 459 3944 
Q 428 4031 361 4073 
Q 294 4116 134 4122 
L 134 4238 
L 1347 4238 
z
M 1347 2350 
L 1347 1050 
Q 1347 653 1366 544 
Q 1397 359 1515 245 
Q 1634 131 1819 131 
Q 1978 131 2092 222 
Q 2206 313 2282 581 
Q 2359 850 2359 1550 
Q 2359 2222 2191 2472 
Q 2069 2653 1863 2653 
Q 1594 2653 1347 2350 
z
" transform="scale(0.015625)"/>
       <path id="TimesNewRomanPS-BoldMT-69" d="M 919 4338 
Q 1122 4338 1262 4195 
Q 1403 4053 1403 3853 
Q 1403 3653 1261 3512 
Q 1119 3372 919 3372 
Q 719 3372 578 3512 
Q 438 3653 438 3853 
Q 438 4053 578 4195 
Q 719 4338 919 4338 
z
M 1356 2922 
L 1356 606 
Q 1356 297 1428 211 
Q 1500 125 1709 113 
L 1709 0 
L 131 0 
L 131 113 
Q 325 119 419 225 
Q 481 297 481 606 
L 481 2313 
Q 481 2622 409 2708 
Q 338 2794 131 2806 
L 131 2922 
L 1356 2922 
z
" transform="scale(0.015625)"/>
       <path id="TimesNewRomanPS-BoldMT-74" d="M 1375 3991 
L 1375 2922 
L 2069 2922 
L 2069 2613 
L 1375 2613 
L 1375 809 
Q 1375 556 1398 482 
Q 1422 409 1481 364 
Q 1541 319 1591 319 
Q 1794 319 1975 628 
L 2069 559 
Q 1816 -41 1247 -41 
Q 969 -41 776 114 
Q 584 269 531 459 
Q 500 566 500 1034 
L 500 2613 
L 119 2613 
L 119 2722 
Q 513 3000 789 3306 
Q 1066 3613 1272 3991 
L 1375 3991 
z
" transform="scale(0.015625)"/>
       <path id="TimesNewRomanPS-BoldMT-73" d="M 2063 3003 
L 2109 2006 
L 2003 2006 
Q 1813 2450 1608 2612 
Q 1403 2775 1200 2775 
Q 1072 2775 981 2689 
Q 891 2603 891 2491 
Q 891 2406 953 2328 
Q 1053 2200 1512 1889 
Q 1972 1578 2117 1361 
Q 2263 1144 2263 875 
Q 2263 631 2141 397 
Q 2019 163 1797 37 
Q 1575 -88 1306 -88 
Q 1097 -88 747 44 
Q 653 78 619 78 
Q 516 78 447 -78 
L 344 -78 
L 294 972 
L 400 972 
Q 541 559 786 353 
Q 1031 147 1250 147 
Q 1400 147 1495 239 
Q 1591 331 1591 463 
Q 1591 613 1497 722 
Q 1403 831 1078 1053 
Q 600 1384 459 1559 
Q 253 1816 253 2125 
Q 253 2463 486 2736 
Q 719 3009 1159 3009 
Q 1397 3009 1619 2894 
Q 1703 2847 1756 2847 
Q 1813 2847 1847 2870 
Q 1881 2894 1956 3003 
L 2063 3003 
z
" transform="scale(0.015625)"/>
       <path id="TimesNewRomanPS-BoldMT-2f" d="M 1797 4334 
L 406 -97 
L 6 -97 
L 1403 4334 
L 1797 4334 
z
" transform="scale(0.015625)"/>
       <path id="TimesNewRomanPS-BoldMT-6e" d="M 1409 2922 
L 1409 2544 
Q 1634 2788 1840 2898 
Q 2047 3009 2284 3009 
Q 2569 3009 2756 2851 
Q 2944 2694 3006 2459 
Q 3056 2281 3056 1775 
L 3056 638 
Q 3056 300 3117 217 
Q 3178 134 3372 113 
L 3372 0 
L 1894 0 
L 1894 113 
Q 2059 134 2131 250 
Q 2181 328 2181 638 
L 2181 1938 
Q 2181 2297 2153 2390 
Q 2125 2484 2058 2536 
Q 1991 2588 1909 2588 
Q 1641 2588 1409 2203 
L 1409 638 
Q 1409 309 1470 221 
Q 1531 134 1697 113 
L 1697 0 
L 219 0 
L 219 113 
Q 403 131 481 231 
Q 534 300 534 638 
L 534 2288 
Q 534 2619 473 2700 
Q 413 2781 219 2806 
L 219 2922 
L 1409 2922 
z
" transform="scale(0.015625)"/>
       <path id="TimesNewRomanPS-BoldMT-29" d="M 78 -1281 
L 78 -1138 
Q 403 -922 556 -719 
Q 766 -438 888 0 
Q 1038 550 1038 1531 
Q 1038 2456 902 2967 
Q 766 3478 531 3794 
Q 369 4013 78 4178 
L 78 4334 
Q 831 4081 1354 3301 
Q 1878 2522 1878 1509 
Q 1878 513 1354 -257 
Q 831 -1028 78 -1281 
z
" transform="scale(0.015625)"/>
      </defs>
      <use xlink:href="#TimesNewRomanPS-BoldMT-6d"/>
      <use xlink:href="#TimesNewRomanPS-BoldMT-61" transform="translate(83.300781 0)"/>
      <use xlink:href="#TimesNewRomanPS-BoldMT-78" transform="translate(133.300781 0)"/>
      <use xlink:href="#TimesNewRomanPS-BoldMT-20" transform="translate(183.300781 0)"/>
      <use xlink:href="#TimesNewRomanPS-BoldMT-6d" transform="translate(208.300781 0)"/>
      <use xlink:href="#TimesNewRomanPS-BoldMT-65" transform="translate(291.601562 0)"/>
      <use xlink:href="#TimesNewRomanPS-BoldMT-6d" transform="translate(335.986328 0)"/>
      <use xlink:href="#TimesNewRomanPS-BoldMT-6f" transform="translate(419.287109 0)"/>
      <use xlink:href="#TimesNewRomanPS-BoldMT-72" transform="translate(469.287109 0)"/>
      <use xlink:href="#TimesNewRomanPS-BoldMT-79" transform="translate(513.671875 0)"/>
      <use xlink:href="#TimesNewRomanPS-BoldMT-20" transform="translate(563.671875 0)"/>
      <use xlink:href="#TimesNewRomanPS-BoldMT-28" transform="translate(588.671875 0)"/>
      <use xlink:href="#TimesNewRomanPS-BoldMT-62" transform="translate(621.972656 0)"/>
      <use xlink:href="#TimesNewRomanPS-BoldMT-69" transform="translate(677.587891 0)"/>
      <use xlink:href="#TimesNewRomanPS-BoldMT-74" transform="translate(705.371094 0)"/>
      <use xlink:href="#TimesNewRomanPS-BoldMT-73" transform="translate(738.671875 0)"/>
      <use xlink:href="#TimesNewRomanPS-BoldMT-2f" transform="translate(777.587891 0)"/>
      <use xlink:href="#TimesNewRomanPS-BoldMT-65" transform="translate(805.371094 0)"/>
      <use xlink:href="#TimesNewRomanPS-BoldMT-6e" transform="translate(849.755859 0)"/>
      <use xlink:href="#TimesNewRomanPS-BoldMT-74" transform="translate(905.371094 0)"/>
      <use xlink:href="#TimesNewRomanPS-BoldMT-72" transform="translate(938.671875 0)"/>
      <use xlink:href="#TimesNewRomanPS-BoldMT-79" transform="translate(983.056641 0)"/>
      <use xlink:href="#TimesNewRomanPS-BoldMT-29" transform="translate(1033.056641 0)"/>
     </g>
    </g>
   </g>
   <g id="line2d_1">
    <path d="M 98.784396 191.876971 
L 131.050258 190.930467 
L 164.167906 191.406527 
L 193.315824 222.385974 
L 194.824494 218.720651 
L 195.267881 214.078903 
L 195.707157 209.522867 
L 196.573673 195.674405 
L 197.142668 191.642394 
L 227.21007 223.450411 
L 228.17453 216.724071 
L 228.613128 207.082265 
L 229.335219 195.561351 
L 230.328002 192.226076 
L 264.578333 194.531437 
L 297.052569 193.954107 
L 329.705239 194.261875 
L 362.404735 193.74586 
L 395.106019 193.456688 
" clip-path="url(#p864ab92876)" style="fill: none; stroke-dasharray: 12.8,3.2,2,3.2; stroke-dashoffset: 0; stroke: #00441b; stroke-width: 2"/>
    <defs>
     <path id="m2787b16b0b" d="M 0 7.5 
C 1.989023 7.5 3.896849 6.709753 5.303301 5.303301 
C 6.709753 3.896849 7.5 1.989023 7.5 0 
C 7.5 -1.989023 6.709753 -3.896849 5.303301 -5.303301 
C 3.896849 -6.709753 1.989023 -7.5 0 -7.5 
C -1.989023 -7.5 -3.896849 -6.709753 -5.303301 -5.303301 
C -6.709753 -3.896849 -7.5 -1.989023 -7.5 0 
C -7.5 1.989023 -6.709753 3.896849 -5.303301 5.303301 
C -3.896849 6.709753 -1.989023 7.5 0 7.5 
z
" style="stroke: #00441b"/>
    </defs>
    <g clip-path="url(#p864ab92876)">
     <use xlink:href="#m2787b16b0b" x="98.784396" y="191.876971" style="fill-opacity: 0; stroke: #00441b"/>
     <use xlink:href="#m2787b16b0b" x="131.050258" y="190.930467" style="fill-opacity: 0; stroke: #00441b"/>
     <use xlink:href="#m2787b16b0b" x="164.167906" y="191.406527" style="fill-opacity: 0; stroke: #00441b"/>
     <use xlink:href="#m2787b16b0b" x="193.315824" y="222.385974" style="fill-opacity: 0; stroke: #00441b"/>
     <use xlink:href="#m2787b16b0b" x="194.824494" y="218.720651" style="fill-opacity: 0; stroke: #00441b"/>
     <use xlink:href="#m2787b16b0b" x="195.267881" y="214.078903" style="fill-opacity: 0; stroke: #00441b"/>
     <use xlink:href="#m2787b16b0b" x="195.707157" y="209.522867" style="fill-opacity: 0; stroke: #00441b"/>
     <use xlink:href="#m2787b16b0b" x="196.573673" y="195.674405" style="fill-opacity: 0; stroke: #00441b"/>
     <use xlink:href="#m2787b16b0b" x="197.142668" y="191.642394" style="fill-opacity: 0; stroke: #00441b"/>
     <use xlink:href="#m2787b16b0b" x="227.21007" y="223.450411" style="fill-opacity: 0; stroke: #00441b"/>
     <use xlink:href="#m2787b16b0b" x="228.17453" y="216.724071" style="fill-opacity: 0; stroke: #00441b"/>
     <use xlink:href="#m2787b16b0b" x="228.613128" y="207.082265" style="fill-opacity: 0; stroke: #00441b"/>
     <use xlink:href="#m2787b16b0b" x="229.335219" y="195.561351" style="fill-opacity: 0; stroke: #00441b"/>
     <use xlink:href="#m2787b16b0b" x="230.328002" y="192.226076" style="fill-opacity: 0; stroke: #00441b"/>
     <use xlink:href="#m2787b16b0b" x="264.578333" y="194.531437" style="fill-opacity: 0; stroke: #00441b"/>
     <use xlink:href="#m2787b16b0b" x="297.052569" y="193.954107" style="fill-opacity: 0; stroke: #00441b"/>
     <use xlink:href="#m2787b16b0b" x="329.705239" y="194.261875" style="fill-opacity: 0; stroke: #00441b"/>
     <use xlink:href="#m2787b16b0b" x="362.404735" y="193.74586" style="fill-opacity: 0; stroke: #00441b"/>
     <use xlink:href="#m2787b16b0b" x="395.106019" y="193.456688" style="fill-opacity: 0; stroke: #00441b"/>
    </g>
   </g>
   <g id="line2d_2">
    <path d="M 98.784396 152.596531 
L 131.050258 151.176913 
L 164.167906 151.891325 
L 193.315824 198.36008 
L 194.824494 192.86205 
L 195.267881 185.899475 
L 195.707157 179.065512 
L 196.573673 158.292497 
L 197.142668 152.244849 
L 227.21007 199.956737 
L 228.17453 189.867226 
L 228.613128 175.404333 
L 229.335219 158.123101 
L 230.328002 153.120372 
L 264.578333 156.578276 
L 297.052569 155.711959 
L 329.705239 156.174117 
L 362.404735 155.399863 
L 395.106019 154.966245 
" clip-path="url(#p864ab92876)" style="fill: none; stroke-dasharray: 7.4,3.2; stroke-dashoffset: 0; stroke: #006d2c; stroke-width: 2"/>
    <defs>
     <path id="m8ce64ab2c7" d="M 0 7.5 
C 1.989023 7.5 3.896849 6.709753 5.303301 5.303301 
C 6.709753 3.896849 7.5 1.989023 7.5 0 
C 7.5 -1.989023 6.709753 -3.896849 5.303301 -5.303301 
C 3.896849 -6.709753 1.989023 -7.5 0 -7.5 
C -1.989023 -7.5 -3.896849 -6.709753 -5.303301 -5.303301 
C -6.709753 -3.896849 -7.5 -1.989023 -7.5 0 
C -7.5 1.989023 -6.709753 3.896849 -5.303301 5.303301 
C -3.896849 6.709753 -1.989023 7.5 0 7.5 
z
" style="stroke: #006d2c"/>
    </defs>
    <g clip-path="url(#p864ab92876)">
     <use xlink:href="#m8ce64ab2c7" x="98.784396" y="152.596531" style="fill-opacity: 0; stroke: #006d2c"/>
     <use xlink:href="#m8ce64ab2c7" x="131.050258" y="151.176913" style="fill-opacity: 0; stroke: #006d2c"/>
     <use xlink:href="#m8ce64ab2c7" x="164.167906" y="151.891325" style="fill-opacity: 0; stroke: #006d2c"/>
     <use xlink:href="#m8ce64ab2c7" x="193.315824" y="198.36008" style="fill-opacity: 0; stroke: #006d2c"/>
     <use xlink:href="#m8ce64ab2c7" x="194.824494" y="192.86205" style="fill-opacity: 0; stroke: #006d2c"/>
     <use xlink:href="#m8ce64ab2c7" x="195.267881" y="185.899475" style="fill-opacity: 0; stroke: #006d2c"/>
     <use xlink:href="#m8ce64ab2c7" x="195.707157" y="179.065512" style="fill-opacity: 0; stroke: #006d2c"/>
     <use xlink:href="#m8ce64ab2c7" x="196.573673" y="158.292497" style="fill-opacity: 0; stroke: #006d2c"/>
     <use xlink:href="#m8ce64ab2c7" x="197.142668" y="152.244849" style="fill-opacity: 0; stroke: #006d2c"/>
     <use xlink:href="#m8ce64ab2c7" x="227.21007" y="199.956737" style="fill-opacity: 0; stroke: #006d2c"/>
     <use xlink:href="#m8ce64ab2c7" x="228.17453" y="189.867226" style="fill-opacity: 0; stroke: #006d2c"/>
     <use xlink:href="#m8ce64ab2c7" x="228.613128" y="175.404333" style="fill-opacity: 0; stroke: #006d2c"/>
     <use xlink:href="#m8ce64ab2c7" x="229.335219" y="158.123101" style="fill-opacity: 0; stroke: #006d2c"/>
     <use xlink:href="#m8ce64ab2c7" x="230.328002" y="153.120372" style="fill-opacity: 0; stroke: #006d2c"/>
     <use xlink:href="#m8ce64ab2c7" x="264.578333" y="156.578276" style="fill-opacity: 0; stroke: #006d2c"/>
     <use xlink:href="#m8ce64ab2c7" x="297.052569" y="155.711959" style="fill-opacity: 0; stroke: #006d2c"/>
     <use xlink:href="#m8ce64ab2c7" x="329.705239" y="156.174117" style="fill-opacity: 0; stroke: #006d2c"/>
     <use xlink:href="#m8ce64ab2c7" x="362.404735" y="155.399863" style="fill-opacity: 0; stroke: #006d2c"/>
     <use xlink:href="#m8ce64ab2c7" x="395.106019" y="154.966245" style="fill-opacity: 0; stroke: #006d2c"/>
    </g>
   </g>
   <g id="line2d_3">
    <path d="M 98.784396 113.315815 
L 131.050258 111.42299 
L 164.167906 112.374926 
L 193.315824 174.334555 
L 194.824494 167.003542 
L 195.267881 157.719863 
L 195.707157 148.608342 
L 196.573673 120.91105 
L 197.142668 112.847212 
L 227.21007 176.463063 
L 228.17453 163.01075 
L 228.613128 143.727137 
L 229.335219 120.684574 
L 230.328002 114.014576 
L 264.578333 118.625114 
L 297.052569 117.470639 
L 329.705239 118.085622 
L 362.404735 117.053591 
L 395.106019 116.475433 
" clip-path="url(#p864ab92876)" style="fill: none; stroke: #238b45; stroke-width: 2; stroke-linecap: round"/>
    <defs>
     <path id="m9c90581fc4" d="M 0 7.5 
C 1.989023 7.5 3.896849 6.709753 5.303301 5.303301 
C 6.709753 3.896849 7.5 1.989023 7.5 0 
C 7.5 -1.989023 6.709753 -3.896849 5.303301 -5.303301 
C 3.896849 -6.709753 1.989023 -7.5 0 -7.5 
C -1.989023 -7.5 -3.896849 -6.709753 -5.303301 -5.303301 
C -6.709753 -3.896849 -7.5 -1.989023 -7.5 0 
C -7.5 1.989023 -6.709753 3.896849 -5.303301 5.303301 
C -3.896849 6.709753 -1.989023 7.5 0 7.5 
z
" style="stroke: #238b45"/>
    </defs>
    <g clip-path="url(#p864ab92876)">
     <use xlink:href="#m9c90581fc4" x="98.784396" y="113.315815" style="fill-opacity: 0; stroke: #238b45"/>
     <use xlink:href="#m9c90581fc4" x="131.050258" y="111.42299" style="fill-opacity: 0; stroke: #238b45"/>
     <use xlink:href="#m9c90581fc4" x="164.167906" y="112.374926" style="fill-opacity: 0; stroke: #238b45"/>
     <use xlink:href="#m9c90581fc4" x="193.315824" y="174.334555" style="fill-opacity: 0; stroke: #238b45"/>
     <use xlink:href="#m9c90581fc4" x="194.824494" y="167.003542" style="fill-opacity: 0; stroke: #238b45"/>
     <use xlink:href="#m9c90581fc4" x="195.267881" y="157.719863" style="fill-opacity: 0; stroke: #238b45"/>
     <use xlink:href="#m9c90581fc4" x="195.707157" y="148.608342" style="fill-opacity: 0; stroke: #238b45"/>
     <use xlink:href="#m9c90581fc4" x="196.573673" y="120.91105" style="fill-opacity: 0; stroke: #238b45"/>
     <use xlink:href="#m9c90581fc4" x="197.142668" y="112.847212" style="fill-opacity: 0; stroke: #238b45"/>
     <use xlink:href="#m9c90581fc4" x="227.21007" y="176.463063" style="fill-opacity: 0; stroke: #238b45"/>
     <use xlink:href="#m9c90581fc4" x="228.17453" y="163.01075" style="fill-opacity: 0; stroke: #238b45"/>
     <use xlink:href="#m9c90581fc4" x="228.613128" y="143.727137" style="fill-opacity: 0; stroke: #238b45"/>
     <use xlink:href="#m9c90581fc4" x="229.335219" y="120.684574" style="fill-opacity: 0; stroke: #238b45"/>
     <use xlink:href="#m9c90581fc4" x="230.328002" y="114.014576" style="fill-opacity: 0; stroke: #238b45"/>
     <use xlink:href="#m9c90581fc4" x="264.578333" y="118.625114" style="fill-opacity: 0; stroke: #238b45"/>
     <use xlink:href="#m9c90581fc4" x="297.052569" y="117.470639" style="fill-opacity: 0; stroke: #238b45"/>
     <use xlink:href="#m9c90581fc4" x="329.705239" y="118.085622" style="fill-opacity: 0; stroke: #238b45"/>
     <use xlink:href="#m9c90581fc4" x="362.404735" y="117.053591" style="fill-opacity: 0; stroke: #238b45"/>
     <use xlink:href="#m9c90581fc4" x="395.106019" y="116.475433" style="fill-opacity: 0; stroke: #238b45"/>
    </g>
   </g>
   <g id="line2d_4">
    <path d="M 98.784396 74.036019 
L 131.050258 71.669067 
L 164.167906 72.859448 
L 193.315824 150.308754 
L 194.824494 141.144757 
L 195.267881 129.541079 
L 195.707157 118.150988 
L 196.573673 83.529603 
L 197.142668 73.449575 
L 227.21007 152.969388 
L 228.17453 136.153997 
L 228.613128 112.049021 
L 229.335219 83.246968 
L 230.328002 74.90878 
L 264.578333 80.671953 
L 297.052569 79.228398 
L 329.705239 79.998048 
L 362.404735 78.708239 
L 395.106019 77.985541 
" clip-path="url(#p864ab92876)" style="fill: none; stroke-dasharray: 2,3.3; stroke-dashoffset: 0; stroke: #41ae76; stroke-width: 2"/>
    <defs>
     <path id="mbc14803b6c" d="M 0 7.5 
C 1.989023 7.5 3.896849 6.709753 5.303301 5.303301 
C 6.709753 3.896849 7.5 1.989023 7.5 0 
C 7.5 -1.989023 6.709753 -3.896849 5.303301 -5.303301 
C 3.896849 -6.709753 1.989023 -7.5 0 -7.5 
C -1.989023 -7.5 -3.896849 -6.709753 -5.303301 -5.303301 
C -6.709753 -3.896849 -7.5 -1.989023 -7.5 0 
C -7.5 1.989023 -6.709753 3.896849 -5.303301 5.303301 
C -3.896849 6.709753 -1.989023 7.5 0 7.5 
z
" style="stroke: #41ae76"/>
    </defs>
    <g clip-path="url(#p864ab92876)">
     <use xlink:href="#mbc14803b6c" x="98.784396" y="74.036019" style="fill-opacity: 0; stroke: #41ae76"/>
     <use xlink:href="#mbc14803b6c" x="131.050258" y="71.669067" style="fill-opacity: 0; stroke: #41ae76"/>
     <use xlink:href="#mbc14803b6c" x="164.167906" y="72.859448" style="fill-opacity: 0; stroke: #41ae76"/>
     <use xlink:href="#mbc14803b6c" x="193.315824" y="150.308754" style="fill-opacity: 0; stroke: #41ae76"/>
     <use xlink:href="#mbc14803b6c" x="194.824494" y="141.144757" style="fill-opacity: 0; stroke: #41ae76"/>
     <use xlink:href="#mbc14803b6c" x="195.267881" y="129.541079" style="fill-opacity: 0; stroke: #41ae76"/>
     <use xlink:href="#mbc14803b6c" x="195.707157" y="118.150988" style="fill-opacity: 0; stroke: #41ae76"/>
     <use xlink:href="#mbc14803b6c" x="196.573673" y="83.529603" style="fill-opacity: 0; stroke: #41ae76"/>
     <use xlink:href="#mbc14803b6c" x="197.142668" y="73.449575" style="fill-opacity: 0; stroke: #41ae76"/>
     <use xlink:href="#mbc14803b6c" x="227.21007" y="152.969388" style="fill-opacity: 0; stroke: #41ae76"/>
     <use xlink:href="#mbc14803b6c" x="228.17453" y="136.153997" style="fill-opacity: 0; stroke: #41ae76"/>
     <use xlink:href="#mbc14803b6c" x="228.613128" y="112.049021" style="fill-opacity: 0; stroke: #41ae76"/>
     <use xlink:href="#mbc14803b6c" x="229.335219" y="83.246968" style="fill-opacity: 0; stroke: #41ae76"/>
     <use xlink:href="#mbc14803b6c" x="230.328002" y="74.90878" style="fill-opacity: 0; stroke: #41ae76"/>
     <use xlink:href="#mbc14803b6c" x="264.578333" y="80.671953" style="fill-opacity: 0; stroke: #41ae76"/>
     <use xlink:href="#mbc14803b6c" x="297.052569" y="79.228398" style="fill-opacity: 0; stroke: #41ae76"/>
     <use xlink:href="#mbc14803b6c" x="329.705239" y="79.998048" style="fill-opacity: 0; stroke: #41ae76"/>
     <use xlink:href="#mbc14803b6c" x="362.404735" y="78.708239" style="fill-opacity: 0; stroke: #41ae76"/>
     <use xlink:href="#mbc14803b6c" x="395.106019" y="77.985541" style="fill-opacity: 0; stroke: #41ae76"/>
    </g>
   </g>
   <g id="line2d_5">
    <path d="M 95.274033 106.291373 
L 128.107186 108.5948 
L 160.940339 109.746514 
L 193.773492 110.322832 
L 226.530673 110.354133 
L 259.930664 112.400704 
L 291.604031 108.557054 
L 324.234653 107.899721 
L 355.839046 103.64731 
L 388.57042 103.297469 
L 420.19418 98.980613 
" clip-path="url(#p864ab92876)" style="fill: none; stroke: #000000; stroke-width: 2; stroke-linecap: round"/>
    <defs>
     <path id="mf5c8e14b41" d="M -7.5 7.5 
L 7.5 7.5 
L 7.5 -7.5 
L -7.5 -7.5 
z
" style="stroke: #000000; stroke-linejoin: miter"/>
    </defs>
    <g clip-path="url(#p864ab92876)">
     <use xlink:href="#mf5c8e14b41" x="95.274033" y="106.291373" style="fill-opacity: 0; stroke: #000000; stroke-linejoin: miter"/>
     <use xlink:href="#mf5c8e14b41" x="128.107186" y="108.5948" style="fill-opacity: 0; stroke: #000000; stroke-linejoin: miter"/>
     <use xlink:href="#mf5c8e14b41" x="160.940339" y="109.746514" style="fill-opacity: 0; stroke: #000000; stroke-linejoin: miter"/>
     <use xlink:href="#mf5c8e14b41" x="193.773492" y="110.322832" style="fill-opacity: 0; stroke: #000000; stroke-linejoin: miter"/>
     <use xlink:href="#mf5c8e14b41" x="226.530673" y="110.354133" style="fill-opacity: 0; stroke: #000000; stroke-linejoin: miter"/>
     <use xlink:href="#mf5c8e14b41" x="259.930664" y="112.400704" style="fill-opacity: 0; stroke: #000000; stroke-linejoin: miter"/>
     <use xlink:href="#mf5c8e14b41" x="291.604031" y="108.557054" style="fill-opacity: 0; stroke: #000000; stroke-linejoin: miter"/>
     <use xlink:href="#mf5c8e14b41" x="324.234653" y="107.899721" style="fill-opacity: 0; stroke: #000000; stroke-linejoin: miter"/>
     <use xlink:href="#mf5c8e14b41" x="355.839046" y="103.64731" style="fill-opacity: 0; stroke: #000000; stroke-linejoin: miter"/>
     <use xlink:href="#mf5c8e14b41" x="388.57042" y="103.297469" style="fill-opacity: 0; stroke: #000000; stroke-linejoin: miter"/>
     <use xlink:href="#mf5c8e14b41" x="420.19418" y="98.980613" style="fill-opacity: 0; stroke: #000000; stroke-linejoin: miter"/>
    </g>
   </g>
   <g id="patch_3">
    <path d="M 87.80087 270.43776 
L 87.80087 64.08 
" style="fill: none; stroke: #cccccc; stroke-width: 1.25; stroke-linejoin: miter; stroke-linecap: square"/>
   </g>
   <g id="patch_4">
    <path d="M 87.80087 270.43776 
L 427.667344 270.43776 
" style="fill: none; stroke: #cccccc; stroke-width: 1.25; stroke-linejoin: miter; stroke-linecap: square"/>
   </g>
  </g>
  <g id="axes_2">
   <g id="patch_5">
    <path d="M 515.485088 270.43776 
L 855.351562 270.43776 
L 855.351562 64.08 
L 515.485088 64.08 
z
" style="fill: #ffffff"/>
   </g>
   <g id="matplotlib.axis_3">
    <g id="xtick_29">
     <g id="text_9">
      <!-- $\mathdefault{10^{4}}$ -->
      <g style="fill: #262626" transform="translate(545.848221 303.75596) scale(0.2688 -0.2688)">
       <use xlink:href="#TimesNewRomanPSMT-31" transform="translate(0 0.582813)"/>
       <use xlink:href="#TimesNewRomanPSMT-30" transform="translate(50 0.582813)"/>
       <use xlink:href="#TimesNewRomanPSMT-34" transform="translate(101.502813 60.695312) scale(0.7)"/>
      </g>
     </g>
    </g>
    <g id="xtick_30">
     <g id="text_10">
      <!-- $\mathdefault{10^{5}}$ -->
      <g style="fill: #262626" transform="translate(653.784358 303.48716) scale(0.2688 -0.2688)">
       <use xlink:href="#TimesNewRomanPSMT-31" transform="translate(0 0.534375)"/>
       <use xlink:href="#TimesNewRomanPSMT-30" transform="translate(50 0.534375)"/>
       <use xlink:href="#TimesNewRomanPSMT-35" transform="translate(101.502813 60.646875) scale(0.7)"/>
      </g>
     </g>
    </g>
    <g id="xtick_31">
     <g id="text_11">
      <!-- $\mathdefault{10^{6}}$ -->
      <g style="fill: #262626" transform="translate(761.720495 303.75596) scale(0.2688 -0.2688)">
       <use xlink:href="#TimesNewRomanPSMT-31" transform="translate(0 0.582813)"/>
       <use xlink:href="#TimesNewRomanPSMT-30" transform="translate(50 0.582813)"/>
       <use xlink:href="#TimesNewRomanPSMT-36" transform="translate(101.502813 60.695312) scale(0.7)"/>
      </g>
     </g>
    </g>
    <g id="xtick_32"/>
    <g id="xtick_33"/>
    <g id="xtick_34"/>
    <g id="xtick_35"/>
    <g id="xtick_36"/>
    <g id="xtick_37"/>
    <g id="xtick_38"/>
    <g id="xtick_39"/>
    <g id="xtick_40"/>
    <g id="xtick_41"/>
    <g id="xtick_42"/>
    <g id="xtick_43"/>
    <g id="xtick_44"/>
    <g id="xtick_45"/>
    <g id="xtick_46"/>
    <g id="xtick_47"/>
    <g id="xtick_48"/>
    <g id="xtick_49"/>
    <g id="xtick_50"/>
    <g id="xtick_51"/>
    <g id="xtick_52"/>
    <g id="xtick_53"/>
    <g id="xtick_54"/>
    <g id="xtick_55"/>
    <g id="xtick_56"/>
    <g id="text_12">
     <!-- #entries -->
     <g style="fill: #262626" transform="translate(637.554075 334.50366) scale(0.3024 -0.3024)">
      <use xlink:href="#TimesNewRomanPSMT-23"/>
      <use xlink:href="#TimesNewRomanPSMT-65" transform="translate(50 0)"/>
      <use xlink:href="#TimesNewRomanPSMT-6e" transform="translate(94.384766 0)"/>
      <use xlink:href="#TimesNewRomanPSMT-74" transform="translate(144.384766 0)"/>
      <use xlink:href="#TimesNewRomanPSMT-72" transform="translate(172.167969 0)"/>
      <use xlink:href="#TimesNewRomanPSMT-69" transform="translate(205.46875 0)"/>
      <use xlink:href="#TimesNewRomanPSMT-65" transform="translate(233.251953 0)"/>
      <use xlink:href="#TimesNewRomanPSMT-73" transform="translate(277.636719 0)"/>
     </g>
    </g>
   </g>
   <g id="matplotlib.axis_4">
    <g id="ytick_4">
     <g id="text_13">
      <!-- 0 -->
      <g style="fill: #262626" transform="translate(492.545088 279.77016) scale(0.2688 -0.2688)">
       <use xlink:href="#TimesNewRomanPSMT-30"/>
      </g>
     </g>
    </g>
    <g id="ytick_5">
     <g id="text_14">
      <!-- 50 -->
      <g style="fill: #262626" transform="translate(479.105088 172.197787) scale(0.2688 -0.2688)">
       <use xlink:href="#TimesNewRomanPSMT-35"/>
       <use xlink:href="#TimesNewRomanPSMT-30" transform="translate(50 0)"/>
      </g>
     </g>
    </g>
    <g id="text_15">
     <!-- avg. insertion lat. (μs) -->
     <g style="fill: #262626" transform="translate(455.306252 306.166723) rotate(-90) scale(0.2688 -0.2688)">
      <defs>
       <path id="TimesNewRomanPS-BoldMT-76" d="M 1534 -88 
L 550 2178 
Q 372 2588 272 2697 
Q 200 2778 59 2806 
L 59 2922 
L 1613 2922 
L 1613 2806 
Q 1466 2806 1413 2753 
Q 1338 2684 1338 2591 
Q 1338 2475 1475 2156 
L 1956 1059 
L 2341 2006 
Q 2506 2413 2506 2581 
Q 2506 2678 2436 2739 
Q 2366 2800 2188 2806 
L 2188 2922 
L 3144 2922 
L 3144 2806 
Q 3006 2788 2918 2703 
Q 2831 2619 2656 2206 
L 1681 -88 
L 1534 -88 
z
" transform="scale(0.015625)"/>
       <path id="TimesNewRomanPS-BoldMT-67" d="M 2091 2888 
L 3075 2888 
L 3075 2544 
L 2516 2544 
Q 2669 2391 2728 2266 
Q 2803 2097 2803 1913 
Q 2803 1600 2629 1370 
Q 2456 1141 2157 1011 
Q 1859 881 1628 881 
Q 1609 881 1253 897 
Q 1113 897 1017 805 
Q 922 713 922 584 
Q 922 472 1008 400 
Q 1094 328 1288 328 
L 1828 334 
Q 2484 334 2731 191 
Q 3084 -9 3084 -425 
Q 3084 -691 2921 -908 
Q 2759 -1125 2494 -1228 
Q 2091 -1381 1566 -1381 
Q 1172 -1381 847 -1304 
Q 522 -1228 381 -1092 
Q 241 -956 241 -806 
Q 241 -663 348 -548 
Q 456 -434 750 -356 
Q 344 -156 344 200 
Q 344 416 509 619 
Q 675 822 1034 972 
Q 616 1125 428 1375 
Q 241 1625 241 1953 
Q 241 2381 591 2695 
Q 941 3009 1491 3009 
Q 1781 3009 2091 2888 
z
M 1550 2816 
Q 1369 2816 1244 2633 
Q 1119 2450 1119 1875 
Q 1119 1409 1242 1236 
Q 1366 1063 1534 1063 
Q 1722 1063 1847 1234 
Q 1972 1406 1972 1903 
Q 1972 2463 1831 2666 
Q 1731 2816 1550 2816 
z
M 1366 -431 
Q 1047 -431 944 -484 
Q 766 -581 766 -747 
Q 766 -906 950 -1036 
Q 1134 -1166 1644 -1166 
Q 2078 -1166 2326 -1050 
Q 2575 -934 2575 -725 
Q 2575 -647 2528 -594 
Q 2444 -500 2273 -465 
Q 2103 -431 1366 -431 
z
" transform="scale(0.015625)"/>
       <path id="TimesNewRomanPS-BoldMT-2e" d="M 800 963 
Q 1019 963 1170 809 
Q 1322 656 1322 441 
Q 1322 225 1169 73 
Q 1016 -78 800 -78 
Q 584 -78 432 73 
Q 281 225 281 441 
Q 281 656 432 809 
Q 584 963 800 963 
z
" transform="scale(0.015625)"/>
       <path id="TimesNewRomanPS-BoldMT-6c" d="M 1359 4238 
L 1359 606 
Q 1359 297 1431 211 
Q 1503 125 1713 113 
L 1713 0 
L 134 0 
L 134 113 
Q 328 119 422 225 
Q 484 297 484 606 
L 484 3631 
Q 484 3938 412 4023 
Q 341 4109 134 4122 
L 134 4238 
L 1359 4238 
z
" transform="scale(0.015625)"/>
       <path id="TimesNewRomanPS-BoldMT-3bc" d="M 3416 819 
L 3531 819 
Q 3528 350 3318 131 
Q 3109 -88 2806 -88 
Q 2309 -88 2141 391 
Q 1759 -88 1263 -88 
Q 1069 -88 922 34 
Q 963 -219 1059 -544 
Q 1138 -809 1138 -922 
Q 1138 -1119 1034 -1250 
Q 931 -1381 734 -1381 
Q 334 -1381 334 -981 
Q 334 -856 400 -563 
Q 494 -134 494 419 
L 494 2922 
L 1369 2922 
L 1369 925 
Q 1369 572 1426 455 
Q 1484 338 1644 338 
Q 1888 338 2141 725 
L 2141 2922 
L 3016 2922 
L 3016 741 
Q 3016 391 3200 391 
Q 3403 391 3416 819 
z
" transform="scale(0.015625)"/>
      </defs>
      <use xlink:href="#TimesNewRomanPS-BoldMT-61"/>
      <use xlink:href="#TimesNewRomanPS-BoldMT-76" transform="translate(50 0)"/>
      <use xlink:href="#TimesNewRomanPS-BoldMT-67" transform="translate(100 0)"/>
      <use xlink:href="#TimesNewRomanPS-BoldMT-2e" transform="translate(150 0)"/>
      <use xlink:href="#TimesNewRomanPS-BoldMT-20" transform="translate(175 0)"/>
      <use xlink:href="#TimesNewRomanPS-BoldMT-69" transform="translate(200 0)"/>
      <use xlink:href="#TimesNewRomanPS-BoldMT-6e" transform="translate(227.783203 0)"/>
      <use xlink:href="#TimesNewRomanPS-BoldMT-73" transform="translate(283.398438 0)"/>
      <use xlink:href="#TimesNewRomanPS-BoldMT-65" transform="translate(322.314453 0)"/>
      <use xlink:href="#TimesNewRomanPS-BoldMT-72" transform="translate(366.699219 0)"/>
      <use xlink:href="#TimesNewRomanPS-BoldMT-74" transform="translate(411.083984 0)"/>
      <use xlink:href="#TimesNewRomanPS-BoldMT-69" transform="translate(444.384766 0)"/>
      <use xlink:href="#TimesNewRomanPS-BoldMT-6f" transform="translate(472.167969 0)"/>
      <use xlink:href="#TimesNewRomanPS-BoldMT-6e" transform="translate(522.167969 0)"/>
      <use xlink:href="#TimesNewRomanPS-BoldMT-20" transform="translate(577.783203 0)"/>
      <use xlink:href="#TimesNewRomanPS-BoldMT-6c" transform="translate(602.783203 0)"/>
      <use xlink:href="#TimesNewRomanPS-BoldMT-61" transform="translate(630.566406 0)"/>
      <use xlink:href="#TimesNewRomanPS-BoldMT-74" transform="translate(680.566406 0)"/>
      <use xlink:href="#TimesNewRomanPS-BoldMT-2e" transform="translate(713.867188 0)"/>
      <use xlink:href="#TimesNewRomanPS-BoldMT-20" transform="translate(738.867188 0)"/>
      <use xlink:href="#TimesNewRomanPS-BoldMT-28" transform="translate(763.867188 0)"/>
      <use xlink:href="#TimesNewRomanPS-BoldMT-3bc" transform="translate(797.167969 0)"/>
      <use xlink:href="#TimesNewRomanPS-BoldMT-73" transform="translate(853.857422 0)"/>
      <use xlink:href="#TimesNewRomanPS-BoldMT-29" transform="translate(892.773438 0)"/>
     </g>
    </g>
   </g>
   <g id="line2d_6">
    <path d="M 522.958252 236.174991 
L 555.450266 210.726397 
L 587.942281 216.99243 
L 620.434296 214.955713 
L 652.926311 204.323135 
L 685.418325 187.495459 
L 717.91034 153.305686 
L 750.402355 129.478841 
L 782.89437 90.855325 
L 815.386384 73.814068 
L 847.878399 94.805885 
" clip-path="url(#pf630b6faf4)" style="fill: none; stroke-dasharray: 12.8,3.2,2,3.2; stroke-dashoffset: 0; stroke: #00441b; stroke-width: 2"/>
    <g clip-path="url(#pf630b6faf4)">
     <use xlink:href="#m2787b16b0b" x="522.958252" y="236.174991" style="fill-opacity: 0; stroke: #00441b"/>
     <use xlink:href="#m2787b16b0b" x="555.450266" y="210.726397" style="fill-opacity: 0; stroke: #00441b"/>
     <use xlink:href="#m2787b16b0b" x="587.942281" y="216.99243" style="fill-opacity: 0; stroke: #00441b"/>
     <use xlink:href="#m2787b16b0b" x="620.434296" y="214.955713" style="fill-opacity: 0; stroke: #00441b"/>
     <use xlink:href="#m2787b16b0b" x="652.926311" y="204.323135" style="fill-opacity: 0; stroke: #00441b"/>
     <use xlink:href="#m2787b16b0b" x="685.418325" y="187.495459" style="fill-opacity: 0; stroke: #00441b"/>
     <use xlink:href="#m2787b16b0b" x="717.91034" y="153.305686" style="fill-opacity: 0; stroke: #00441b"/>
     <use xlink:href="#m2787b16b0b" x="750.402355" y="129.478841" style="fill-opacity: 0; stroke: #00441b"/>
     <use xlink:href="#m2787b16b0b" x="782.89437" y="90.855325" style="fill-opacity: 0; stroke: #00441b"/>
     <use xlink:href="#m2787b16b0b" x="815.386384" y="73.814068" style="fill-opacity: 0; stroke: #00441b"/>
     <use xlink:href="#m2787b16b0b" x="847.878399" y="94.805885" style="fill-opacity: 0; stroke: #00441b"/>
    </g>
   </g>
   <g id="line2d_7">
    <path d="M 522.958252 259.473123 
L 555.450266 257.08466 
L 587.942281 254.953961 
L 620.434296 251.0165 
L 652.926311 252.536849 
L 685.418325 254.156169 
L 717.91034 247.84705 
L 750.402355 225.086965 
L 782.89437 197.759205 
L 815.386384 178.34091 
L 847.878399 177.929641 
" clip-path="url(#pf630b6faf4)" style="fill: none; stroke-dasharray: 7.4,3.2; stroke-dashoffset: 0; stroke: #006d2c; stroke-width: 2"/>
    <g clip-path="url(#pf630b6faf4)">
     <use xlink:href="#m8ce64ab2c7" x="522.958252" y="259.473123" style="fill-opacity: 0; stroke: #006d2c"/>
     <use xlink:href="#m8ce64ab2c7" x="555.450266" y="257.08466" style="fill-opacity: 0; stroke: #006d2c"/>
     <use xlink:href="#m8ce64ab2c7" x="587.942281" y="254.953961" style="fill-opacity: 0; stroke: #006d2c"/>
     <use xlink:href="#m8ce64ab2c7" x="620.434296" y="251.0165" style="fill-opacity: 0; stroke: #006d2c"/>
     <use xlink:href="#m8ce64ab2c7" x="652.926311" y="252.536849" style="fill-opacity: 0; stroke: #006d2c"/>
     <use xlink:href="#m8ce64ab2c7" x="685.418325" y="254.156169" style="fill-opacity: 0; stroke: #006d2c"/>
     <use xlink:href="#m8ce64ab2c7" x="717.91034" y="247.84705" style="fill-opacity: 0; stroke: #006d2c"/>
     <use xlink:href="#m8ce64ab2c7" x="750.402355" y="225.086965" style="fill-opacity: 0; stroke: #006d2c"/>
     <use xlink:href="#m8ce64ab2c7" x="782.89437" y="197.759205" style="fill-opacity: 0; stroke: #006d2c"/>
     <use xlink:href="#m8ce64ab2c7" x="815.386384" y="178.34091" style="fill-opacity: 0; stroke: #006d2c"/>
     <use xlink:href="#m8ce64ab2c7" x="847.878399" y="177.929641" style="fill-opacity: 0; stroke: #006d2c"/>
    </g>
   </g>
   <g id="line2d_8">
    <path d="M 522.958252 265.300641 
L 555.450266 263.382567 
L 587.942281 262.875584 
L 620.434296 261.827772 
L 652.926311 263.537674 
L 685.418325 264.731716 
L 717.91034 264.318875 
L 750.402355 258.538342 
L 782.89437 251.970627 
L 815.386384 246.231546 
L 847.878399 244.846098 
" clip-path="url(#pf630b6faf4)" style="fill: none; stroke: #238b45; stroke-width: 2; stroke-linecap: round"/>
    <g clip-path="url(#pf630b6faf4)">
     <use xlink:href="#m9c90581fc4" x="522.958252" y="265.300641" style="fill-opacity: 0; stroke: #238b45"/>
     <use xlink:href="#m9c90581fc4" x="555.450266" y="263.382567" style="fill-opacity: 0; stroke: #238b45"/>
     <use xlink:href="#m9c90581fc4" x="587.942281" y="262.875584" style="fill-opacity: 0; stroke: #238b45"/>
     <use xlink:href="#m9c90581fc4" x="620.434296" y="261.827772" style="fill-opacity: 0; stroke: #238b45"/>
     <use xlink:href="#m9c90581fc4" x="652.926311" y="263.537674" style="fill-opacity: 0; stroke: #238b45"/>
     <use xlink:href="#m9c90581fc4" x="685.418325" y="264.731716" style="fill-opacity: 0; stroke: #238b45"/>
     <use xlink:href="#m9c90581fc4" x="717.91034" y="264.318875" style="fill-opacity: 0; stroke: #238b45"/>
     <use xlink:href="#m9c90581fc4" x="750.402355" y="258.538342" style="fill-opacity: 0; stroke: #238b45"/>
     <use xlink:href="#m9c90581fc4" x="782.89437" y="251.970627" style="fill-opacity: 0; stroke: #238b45"/>
     <use xlink:href="#m9c90581fc4" x="815.386384" y="246.231546" style="fill-opacity: 0; stroke: #238b45"/>
     <use xlink:href="#m9c90581fc4" x="847.878399" y="244.846098" style="fill-opacity: 0; stroke: #238b45"/>
    </g>
   </g>
   <g id="line2d_9">
    <path d="M 522.958252 268.495433 
L 555.450266 267.909946 
L 587.942281 267.666201 
L 620.434296 267.27002 
L 652.926311 267.103504 
L 685.418325 267.709555 
L 717.91034 267.486907 
L 750.402355 266.598932 
L 782.89437 264.205961 
L 815.386384 262.542701 
L 847.878399 261.897681 
" clip-path="url(#pf630b6faf4)" style="fill: none; stroke-dasharray: 2,3.3; stroke-dashoffset: 0; stroke: #41ae76; stroke-width: 2"/>
    <g clip-path="url(#pf630b6faf4)">
     <use xlink:href="#mbc14803b6c" x="522.958252" y="268.495433" style="fill-opacity: 0; stroke: #41ae76"/>
     <use xlink:href="#mbc14803b6c" x="555.450266" y="267.909946" style="fill-opacity: 0; stroke: #41ae76"/>
     <use xlink:href="#mbc14803b6c" x="587.942281" y="267.666201" style="fill-opacity: 0; stroke: #41ae76"/>
     <use xlink:href="#mbc14803b6c" x="620.434296" y="267.27002" style="fill-opacity: 0; stroke: #41ae76"/>
     <use xlink:href="#mbc14803b6c" x="652.926311" y="267.103504" style="fill-opacity: 0; stroke: #41ae76"/>
     <use xlink:href="#mbc14803b6c" x="685.418325" y="267.709555" style="fill-opacity: 0; stroke: #41ae76"/>
     <use xlink:href="#mbc14803b6c" x="717.91034" y="267.486907" style="fill-opacity: 0; stroke: #41ae76"/>
     <use xlink:href="#mbc14803b6c" x="750.402355" y="266.598932" style="fill-opacity: 0; stroke: #41ae76"/>
     <use xlink:href="#mbc14803b6c" x="782.89437" y="264.205961" style="fill-opacity: 0; stroke: #41ae76"/>
     <use xlink:href="#mbc14803b6c" x="815.386384" y="262.542701" style="fill-opacity: 0; stroke: #41ae76"/>
     <use xlink:href="#mbc14803b6c" x="847.878399" y="261.897681" style="fill-opacity: 0; stroke: #41ae76"/>
    </g>
   </g>
   <g id="line2d_10">
    <path d="M 522.958252 267.640771 
L 555.450266 265.61626 
L 587.942281 265.720501 
L 620.434296 264.88281 
L 652.926311 265.116671 
L 685.418325 266.169018 
L 717.91034 266.145855 
L 750.402355 266.178952 
L 782.89437 261.627277 
L 815.386384 256.588061 
L 847.878399 250.687002 
" clip-path="url(#pf630b6faf4)" style="fill: none; stroke: #000000; stroke-width: 2; stroke-linecap: round"/>
    <g clip-path="url(#pf630b6faf4)">
     <use xlink:href="#mf5c8e14b41" x="522.958252" y="267.640771" style="fill-opacity: 0; stroke: #000000; stroke-linejoin: miter"/>
     <use xlink:href="#mf5c8e14b41" x="555.450266" y="265.61626" style="fill-opacity: 0; stroke: #000000; stroke-linejoin: miter"/>
     <use xlink:href="#mf5c8e14b41" x="587.942281" y="265.720501" style="fill-opacity: 0; stroke: #000000; stroke-linejoin: miter"/>
     <use xlink:href="#mf5c8e14b41" x="620.434296" y="264.88281" style="fill-opacity: 0; stroke: #000000; stroke-linejoin: miter"/>
     <use xlink:href="#mf5c8e14b41" x="652.926311" y="265.116671" style="fill-opacity: 0; stroke: #000000; stroke-linejoin: miter"/>
     <use xlink:href="#mf5c8e14b41" x="685.418325" y="266.169018" style="fill-opacity: 0; stroke: #000000; stroke-linejoin: miter"/>
     <use xlink:href="#mf5c8e14b41" x="717.91034" y="266.145855" style="fill-opacity: 0; stroke: #000000; stroke-linejoin: miter"/>
     <use xlink:href="#mf5c8e14b41" x="750.402355" y="266.178952" style="fill-opacity: 0; stroke: #000000; stroke-linejoin: miter"/>
     <use xlink:href="#mf5c8e14b41" x="782.89437" y="261.627277" style="fill-opacity: 0; stroke: #000000; stroke-linejoin: miter"/>
     <use xlink:href="#mf5c8e14b41" x="815.386384" y="256.588061" style="fill-opacity: 0; stroke: #000000; stroke-linejoin: miter"/>
     <use xlink:href="#mf5c8e14b41" x="847.878399" y="250.687002" style="fill-opacity: 0; stroke: #000000; stroke-linejoin: miter"/>
    </g>
   </g>
   <g id="patch_6">
    <path d="M 515.485088 270.43776 
L 515.485088 64.08 
" style="fill: none; stroke: #cccccc; stroke-width: 1.25; stroke-linejoin: miter; stroke-linecap: square"/>
   </g>
   <g id="patch_7">
    <path d="M 515.485088 270.43776 
L 855.351562 270.43776 
" style="fill: none; stroke: #cccccc; stroke-width: 1.25; stroke-linejoin: miter; stroke-linecap: square"/>
   </g>
  </g>
  <g id="axes_3">
   <g id="patch_8">
    <path d="M 943.169307 270.43776 
L 1283.035781 270.43776 
L 1283.035781 64.08 
L 943.169307 64.08 
z
" style="fill: #ffffff"/>
   </g>
   <g id="matplotlib.axis_5">
    <g id="xtick_57">
     <g id="text_16">
      <!-- $\mathdefault{10^{4}}$ -->
      <g style="fill: #262626" transform="translate(982.290786 303.75596) scale(0.2688 -0.2688)">
       <use xlink:href="#TimesNewRomanPSMT-31" transform="translate(0 0.582813)"/>
       <use xlink:href="#TimesNewRomanPSMT-30" transform="translate(50 0.582813)"/>
       <use xlink:href="#TimesNewRomanPSMT-34" transform="translate(101.502813 60.695312) scale(0.7)"/>
      </g>
     </g>
    </g>
    <g id="xtick_58">
     <g id="text_17">
      <!-- $\mathdefault{10^{5}}$ -->
      <g style="fill: #262626" transform="translate(1090.287455 303.48716) scale(0.2688 -0.2688)">
       <use xlink:href="#TimesNewRomanPSMT-31" transform="translate(0 0.534375)"/>
       <use xlink:href="#TimesNewRomanPSMT-30" transform="translate(50 0.534375)"/>
       <use xlink:href="#TimesNewRomanPSMT-35" transform="translate(101.502813 60.646875) scale(0.7)"/>
      </g>
     </g>
    </g>
    <g id="xtick_59">
     <g id="text_18">
      <!-- $\mathdefault{10^{6}}$ -->
      <g style="fill: #262626" transform="translate(1198.284123 303.75596) scale(0.2688 -0.2688)">
       <use xlink:href="#TimesNewRomanPSMT-31" transform="translate(0 0.582813)"/>
       <use xlink:href="#TimesNewRomanPSMT-30" transform="translate(50 0.582813)"/>
       <use xlink:href="#TimesNewRomanPSMT-36" transform="translate(101.502813 60.695312) scale(0.7)"/>
      </g>
     </g>
    </g>
    <g id="xtick_60"/>
    <g id="xtick_61"/>
    <g id="xtick_62"/>
    <g id="xtick_63"/>
    <g id="xtick_64"/>
    <g id="xtick_65"/>
    <g id="xtick_66"/>
    <g id="xtick_67"/>
    <g id="xtick_68"/>
    <g id="xtick_69"/>
    <g id="xtick_70"/>
    <g id="xtick_71"/>
    <g id="xtick_72"/>
    <g id="xtick_73"/>
    <g id="xtick_74"/>
    <g id="xtick_75"/>
    <g id="xtick_76"/>
    <g id="xtick_77"/>
    <g id="xtick_78"/>
    <g id="xtick_79"/>
    <g id="xtick_80"/>
    <g id="xtick_81"/>
    <g id="xtick_82"/>
    <g id="xtick_83"/>
    <g id="xtick_84"/>
    <g id="xtick_85"/>
    <g id="text_19">
     <!-- #entries -->
     <g style="fill: #262626" transform="translate(1065.238294 334.50366) scale(0.3024 -0.3024)">
      <use xlink:href="#TimesNewRomanPSMT-23"/>
      <use xlink:href="#TimesNewRomanPSMT-65" transform="translate(50 0)"/>
      <use xlink:href="#TimesNewRomanPSMT-6e" transform="translate(94.384766 0)"/>
      <use xlink:href="#TimesNewRomanPSMT-74" transform="translate(144.384766 0)"/>
      <use xlink:href="#TimesNewRomanPSMT-72" transform="translate(172.167969 0)"/>
      <use xlink:href="#TimesNewRomanPSMT-69" transform="translate(205.46875 0)"/>
      <use xlink:href="#TimesNewRomanPSMT-65" transform="translate(233.251953 0)"/>
      <use xlink:href="#TimesNewRomanPSMT-73" transform="translate(277.636719 0)"/>
     </g>
    </g>
   </g>
   <g id="matplotlib.axis_6">
    <g id="ytick_6">
     <g id="text_20">
      <!-- 0 -->
      <g style="fill: #262626" transform="translate(920.229307 279.77016) scale(0.2688 -0.2688)">
       <use xlink:href="#TimesNewRomanPSMT-30"/>
      </g>
     </g>
    </g>
    <g id="ytick_7">
     <g id="text_21">
      <!-- 50 -->
      <g style="fill: #262626" transform="translate(906.789307 171.062332) scale(0.2688 -0.2688)">
       <use xlink:href="#TimesNewRomanPSMT-35"/>
       <use xlink:href="#TimesNewRomanPSMT-30" transform="translate(50 0)"/>
      </g>
     </g>
    </g>
    <g id="text_22">
     <!-- avg. non-ex. query lat. (μs) -->
     <g style="fill: #262626" transform="translate(882.990471 334.541923) rotate(-90) scale(0.2688 -0.2688)">
      <defs>
       <path id="TimesNewRomanPS-BoldMT-2d" d="M 1978 1147 
L 156 1147 
L 156 1794 
L 1978 1794 
L 1978 1147 
z
" transform="scale(0.015625)"/>
       <path id="TimesNewRomanPS-BoldMT-71" d="M 2178 306 
Q 1988 106 1822 25 
Q 1603 -88 1366 -88 
Q 816 -88 497 403 
Q 244 794 244 1338 
Q 244 1791 436 2189 
Q 628 2588 964 2798 
Q 1300 3009 1675 3009 
Q 1925 3009 2120 2925 
Q 2316 2841 2456 2669 
L 2947 3009 
L 3053 3009 
L 3053 -775 
Q 3053 -1063 3103 -1134 
Q 3184 -1250 3431 -1253 
L 3431 -1369 
L 1744 -1369 
L 1744 -1253 
Q 1938 -1253 2025 -1209 
Q 2113 -1166 2145 -1094 
Q 2178 -1022 2178 -800 
L 2178 306 
z
M 2178 591 
L 2178 1794 
Q 2178 2297 2123 2459 
Q 2069 2622 1922 2741 
Q 1847 2800 1731 2800 
Q 1494 2800 1363 2591 
Q 1156 2269 1156 1394 
Q 1156 722 1334 450 
Q 1456 266 1650 266 
Q 1763 266 1905 344 
Q 2047 422 2178 591 
z
" transform="scale(0.015625)"/>
       <path id="TimesNewRomanPS-BoldMT-75" d="M 3038 2922 
L 3038 634 
Q 3038 300 3100 217 
Q 3163 134 3353 113 
L 3353 0 
L 2163 0 
L 2163 391 
Q 1953 141 1743 26 
Q 1534 -88 1275 -88 
Q 1028 -88 836 64 
Q 644 216 578 419 
Q 513 622 513 1128 
L 513 2288 
Q 513 2619 452 2700 
Q 391 2781 197 2806 
L 197 2922 
L 1388 2922 
L 1388 925 
Q 1388 613 1417 522 
Q 1447 431 1511 384 
Q 1575 338 1659 338 
Q 1772 338 1863 397 
Q 1988 478 2163 725 
L 2163 2288 
Q 2163 2619 2102 2700 
Q 2041 2781 1847 2806 
L 1847 2922 
L 3038 2922 
z
" transform="scale(0.015625)"/>
      </defs>
      <use xlink:href="#TimesNewRomanPS-BoldMT-61"/>
      <use xlink:href="#TimesNewRomanPS-BoldMT-76" transform="translate(50 0)"/>
      <use xlink:href="#TimesNewRomanPS-BoldMT-67" transform="translate(100 0)"/>
      <use xlink:href="#TimesNewRomanPS-BoldMT-2e" transform="translate(150 0)"/>
      <use xlink:href="#TimesNewRomanPS-BoldMT-20" transform="translate(175 0)"/>
      <use xlink:href="#TimesNewRomanPS-BoldMT-6e" transform="translate(200 0)"/>
      <use xlink:href="#TimesNewRomanPS-BoldMT-6f" transform="translate(255.615234 0)"/>
      <use xlink:href="#TimesNewRomanPS-BoldMT-6e" transform="translate(305.615234 0)"/>
      <use xlink:href="#TimesNewRomanPS-BoldMT-2d" transform="translate(361.230469 0)"/>
      <use xlink:href="#TimesNewRomanPS-BoldMT-65" transform="translate(394.53125 0)"/>
      <use xlink:href="#TimesNewRomanPS-BoldMT-78" transform="translate(438.916016 0)"/>
      <use xlink:href="#TimesNewRomanPS-BoldMT-2e" transform="translate(488.916016 0)"/>
      <use xlink:href="#TimesNewRomanPS-BoldMT-20" transform="translate(513.916016 0)"/>
      <use xlink:href="#TimesNewRomanPS-BoldMT-71" transform="translate(538.916016 0)"/>
      <use xlink:href="#TimesNewRomanPS-BoldMT-75" transform="translate(594.53125 0)"/>
      <use xlink:href="#TimesNewRomanPS-BoldMT-65" transform="translate(650.146484 0)"/>
      <use xlink:href="#TimesNewRomanPS-BoldMT-72" transform="translate(694.53125 0)"/>
      <use xlink:href="#TimesNewRomanPS-BoldMT-79" transform="translate(738.916016 0)"/>
      <use xlink:href="#TimesNewRomanPS-BoldMT-20" transform="translate(788.916016 0)"/>
      <use xlink:href="#TimesNewRomanPS-BoldMT-6c" transform="translate(813.916016 0)"/>
      <use xlink:href="#TimesNewRomanPS-BoldMT-61" transform="translate(841.699219 0)"/>
      <use xlink:href="#TimesNewRomanPS-BoldMT-74" transform="translate(891.699219 0)"/>
      <use xlink:href="#TimesNewRomanPS-BoldMT-2e" transform="translate(925 0)"/>
      <use xlink:href="#TimesNewRomanPS-BoldMT-20" transform="translate(950 0)"/>
      <use xlink:href="#TimesNewRomanPS-BoldMT-28" transform="translate(975 0)"/>
      <use xlink:href="#TimesNewRomanPS-BoldMT-3bc" transform="translate(1008.300781 0)"/>
      <use xlink:href="#TimesNewRomanPS-BoldMT-73" transform="translate(1064.990234 0)"/>
      <use xlink:href="#TimesNewRomanPS-BoldMT-29" transform="translate(1103.90625 0)"/>
     </g>
    </g>
   </g>
   <g id="line2d_11">
    <path d="M 950.64247 209.17742 
L 982.457845 217.571186 
L 1014.968081 230.556771 
L 1047.302982 235.389704 
L 1079.725304 221.901563 
L 1112.890917 201.119561 
L 1144.943353 190.874175 
L 1177.332948 114.657594 
L 1209.727736 94.194324 
L 1243.161797 75.529951 
L 1275.562618 73.851937 
" clip-path="url(#p47b1507b0e)" style="fill: none; stroke-dasharray: 12.8,3.2,2,3.2; stroke-dashoffset: 0; stroke: #00441b; stroke-width: 2"/>
    <g clip-path="url(#p47b1507b0e)">
     <use xlink:href="#m2787b16b0b" x="950.64247" y="209.17742" style="fill-opacity: 0; stroke: #00441b"/>
     <use xlink:href="#m2787b16b0b" x="982.457845" y="217.571186" style="fill-opacity: 0; stroke: #00441b"/>
     <use xlink:href="#m2787b16b0b" x="1014.968081" y="230.556771" style="fill-opacity: 0; stroke: #00441b"/>
     <use xlink:href="#m2787b16b0b" x="1047.302982" y="235.389704" style="fill-opacity: 0; stroke: #00441b"/>
     <use xlink:href="#m2787b16b0b" x="1079.725304" y="221.901563" style="fill-opacity: 0; stroke: #00441b"/>
     <use xlink:href="#m2787b16b0b" x="1112.890917" y="201.119561" style="fill-opacity: 0; stroke: #00441b"/>
     <use xlink:href="#m2787b16b0b" x="1144.943353" y="190.874175" style="fill-opacity: 0; stroke: #00441b"/>
     <use xlink:href="#m2787b16b0b" x="1177.332948" y="114.657594" style="fill-opacity: 0; stroke: #00441b"/>
     <use xlink:href="#m2787b16b0b" x="1209.727736" y="94.194324" style="fill-opacity: 0; stroke: #00441b"/>
     <use xlink:href="#m2787b16b0b" x="1243.161797" y="75.529951" style="fill-opacity: 0; stroke: #00441b"/>
     <use xlink:href="#m2787b16b0b" x="1275.562618" y="73.851937" style="fill-opacity: 0; stroke: #00441b"/>
    </g>
   </g>
   <g id="line2d_12">
    <path d="M 950.64247 239.101968 
L 982.457845 253.607179 
L 1014.968081 240.382655 
L 1047.302982 237.145227 
L 1079.725304 259.530343 
L 1112.890917 234.071404 
L 1144.943353 222.988424 
L 1177.332948 163.224773 
L 1209.727736 141.895645 
L 1243.161797 117.789249 
L 1275.562618 144.763358 
" clip-path="url(#p47b1507b0e)" style="fill: none; stroke-dasharray: 7.4,3.2; stroke-dashoffset: 0; stroke: #006d2c; stroke-width: 2"/>
    <g clip-path="url(#p47b1507b0e)">
     <use xlink:href="#m8ce64ab2c7" x="950.64247" y="239.101968" style="fill-opacity: 0; stroke: #006d2c"/>
     <use xlink:href="#m8ce64ab2c7" x="982.457845" y="253.607179" style="fill-opacity: 0; stroke: #006d2c"/>
     <use xlink:href="#m8ce64ab2c7" x="1014.968081" y="240.382655" style="fill-opacity: 0; stroke: #006d2c"/>
     <use xlink:href="#m8ce64ab2c7" x="1047.302982" y="237.145227" style="fill-opacity: 0; stroke: #006d2c"/>
     <use xlink:href="#m8ce64ab2c7" x="1079.725304" y="259.530343" style="fill-opacity: 0; stroke: #006d2c"/>
     <use xlink:href="#m8ce64ab2c7" x="1112.890917" y="234.071404" style="fill-opacity: 0; stroke: #006d2c"/>
     <use xlink:href="#m8ce64ab2c7" x="1144.943353" y="222.988424" style="fill-opacity: 0; stroke: #006d2c"/>
     <use xlink:href="#m8ce64ab2c7" x="1177.332948" y="163.224773" style="fill-opacity: 0; stroke: #006d2c"/>
     <use xlink:href="#m8ce64ab2c7" x="1209.727736" y="141.895645" style="fill-opacity: 0; stroke: #006d2c"/>
     <use xlink:href="#m8ce64ab2c7" x="1243.161797" y="117.789249" style="fill-opacity: 0; stroke: #006d2c"/>
     <use xlink:href="#m8ce64ab2c7" x="1275.562618" y="144.763358" style="fill-opacity: 0; stroke: #006d2c"/>
    </g>
   </g>
   <g id="line2d_13">
    <path d="M 950.64247 263.587101 
L 982.457845 258.552298 
L 1014.968081 260.318257 
L 1047.302982 259.929844 
L 1079.725304 266.354259 
L 1112.890917 263.873873 
L 1144.943353 258.781237 
L 1177.332948 243.858152 
L 1209.727736 237.47222 
L 1243.161797 237.570166 
L 1275.562618 236.490588 
" clip-path="url(#p47b1507b0e)" style="fill: none; stroke: #238b45; stroke-width: 2; stroke-linecap: round"/>
    <g clip-path="url(#p47b1507b0e)">
     <use xlink:href="#m9c90581fc4" x="950.64247" y="263.587101" style="fill-opacity: 0; stroke: #238b45"/>
     <use xlink:href="#m9c90581fc4" x="982.457845" y="258.552298" style="fill-opacity: 0; stroke: #238b45"/>
     <use xlink:href="#m9c90581fc4" x="1014.968081" y="260.318257" style="fill-opacity: 0; stroke: #238b45"/>
     <use xlink:href="#m9c90581fc4" x="1047.302982" y="259.929844" style="fill-opacity: 0; stroke: #238b45"/>
     <use xlink:href="#m9c90581fc4" x="1079.725304" y="266.354259" style="fill-opacity: 0; stroke: #238b45"/>
     <use xlink:href="#m9c90581fc4" x="1112.890917" y="263.873873" style="fill-opacity: 0; stroke: #238b45"/>
     <use xlink:href="#m9c90581fc4" x="1144.943353" y="258.781237" style="fill-opacity: 0; stroke: #238b45"/>
     <use xlink:href="#m9c90581fc4" x="1177.332948" y="243.858152" style="fill-opacity: 0; stroke: #238b45"/>
     <use xlink:href="#m9c90581fc4" x="1209.727736" y="237.47222" style="fill-opacity: 0; stroke: #238b45"/>
     <use xlink:href="#m9c90581fc4" x="1243.161797" y="237.570166" style="fill-opacity: 0; stroke: #238b45"/>
     <use xlink:href="#m9c90581fc4" x="1275.562618" y="236.490588" style="fill-opacity: 0; stroke: #238b45"/>
    </g>
   </g>
   <g id="line2d_14">
    <path d="M 950.64247 268.668866 
L 982.457845 267.01205 
L 1014.968081 267.433619 
L 1047.302982 267.613639 
L 1079.725304 267.824967 
L 1112.890917 269.071846 
L 1144.943353 266.731258 
L 1177.332948 264.073025 
L 1209.727736 260.698082 
L 1243.161797 260.396961 
L 1275.562618 261.009965 
" clip-path="url(#p47b1507b0e)" style="fill: none; stroke-dasharray: 2,3.3; stroke-dashoffset: 0; stroke: #41ae76; stroke-width: 2"/>
    <g clip-path="url(#p47b1507b0e)">
     <use xlink:href="#mbc14803b6c" x="950.64247" y="268.668866" style="fill-opacity: 0; stroke: #41ae76"/>
     <use xlink:href="#mbc14803b6c" x="982.457845" y="267.01205" style="fill-opacity: 0; stroke: #41ae76"/>
     <use xlink:href="#mbc14803b6c" x="1014.968081" y="267.433619" style="fill-opacity: 0; stroke: #41ae76"/>
     <use xlink:href="#mbc14803b6c" x="1047.302982" y="267.613639" style="fill-opacity: 0; stroke: #41ae76"/>
     <use xlink:href="#mbc14803b6c" x="1079.725304" y="267.824967" style="fill-opacity: 0; stroke: #41ae76"/>
     <use xlink:href="#mbc14803b6c" x="1112.890917" y="269.071846" style="fill-opacity: 0; stroke: #41ae76"/>
     <use xlink:href="#mbc14803b6c" x="1144.943353" y="266.731258" style="fill-opacity: 0; stroke: #41ae76"/>
     <use xlink:href="#mbc14803b6c" x="1177.332948" y="264.073025" style="fill-opacity: 0; stroke: #41ae76"/>
     <use xlink:href="#mbc14803b6c" x="1209.727736" y="260.698082" style="fill-opacity: 0; stroke: #41ae76"/>
     <use xlink:href="#mbc14803b6c" x="1243.161797" y="260.396961" style="fill-opacity: 0; stroke: #41ae76"/>
     <use xlink:href="#mbc14803b6c" x="1275.562618" y="261.009965" style="fill-opacity: 0; stroke: #41ae76"/>
    </g>
   </g>
   <g id="line2d_15">
    <path d="M 950.64247 269.290675 
L 982.457845 268.601033 
L 1014.968081 267.090863 
L 1047.302982 265.953019 
L 1079.725304 264.545035 
L 1112.890917 269.270455 
L 1144.943353 267.796595 
L 1177.332948 265.4422 
L 1209.727736 255.982663 
L 1243.161797 250.808822 
L 1275.562618 248.196138 
" clip-path="url(#p47b1507b0e)" style="fill: none; stroke: #000000; stroke-width: 2; stroke-linecap: round"/>
    <g clip-path="url(#p47b1507b0e)">
     <use xlink:href="#mf5c8e14b41" x="950.64247" y="269.290675" style="fill-opacity: 0; stroke: #000000; stroke-linejoin: miter"/>
     <use xlink:href="#mf5c8e14b41" x="982.457845" y="268.601033" style="fill-opacity: 0; stroke: #000000; stroke-linejoin: miter"/>
     <use xlink:href="#mf5c8e14b41" x="1014.968081" y="267.090863" style="fill-opacity: 0; stroke: #000000; stroke-linejoin: miter"/>
     <use xlink:href="#mf5c8e14b41" x="1047.302982" y="265.953019" style="fill-opacity: 0; stroke: #000000; stroke-linejoin: miter"/>
     <use xlink:href="#mf5c8e14b41" x="1079.725304" y="264.545035" style="fill-opacity: 0; stroke: #000000; stroke-linejoin: miter"/>
     <use xlink:href="#mf5c8e14b41" x="1112.890917" y="269.270455" style="fill-opacity: 0; stroke: #000000; stroke-linejoin: miter"/>
     <use xlink:href="#mf5c8e14b41" x="1144.943353" y="267.796595" style="fill-opacity: 0; stroke: #000000; stroke-linejoin: miter"/>
     <use xlink:href="#mf5c8e14b41" x="1177.332948" y="265.4422" style="fill-opacity: 0; stroke: #000000; stroke-linejoin: miter"/>
     <use xlink:href="#mf5c8e14b41" x="1209.727736" y="255.982663" style="fill-opacity: 0; stroke: #000000; stroke-linejoin: miter"/>
     <use xlink:href="#mf5c8e14b41" x="1243.161797" y="250.808822" style="fill-opacity: 0; stroke: #000000; stroke-linejoin: miter"/>
     <use xlink:href="#mf5c8e14b41" x="1275.562618" y="248.196138" style="fill-opacity: 0; stroke: #000000; stroke-linejoin: miter"/>
    </g>
   </g>
   <g id="patch_9">
    <path d="M 943.169307 270.43776 
L 943.169307 64.08 
" style="fill: none; stroke: #cccccc; stroke-width: 1.25; stroke-linejoin: miter; stroke-linecap: square"/>
   </g>
   <g id="patch_10">
    <path d="M 943.169307 270.43776 
L 1283.035781 270.43776 
" style="fill: none; stroke: #cccccc; stroke-width: 1.25; stroke-linejoin: miter; stroke-linecap: square"/>
   </g>
  </g>
  <g id="axes_4">
   <g id="patch_11">
    <path d="M 1370.853526 270.43776 
L 1710.72 270.43776 
L 1710.72 64.08 
L 1370.853526 64.08 
z
" style="fill: #ffffff"/>
   </g>
   <g id="matplotlib.axis_7">
    <g id="xtick_86">
     <g id="text_23">
      <!-- $\mathdefault{10^{4}}$ -->
      <g style="fill: #262626" transform="translate(1409.975005 303.75596) scale(0.2688 -0.2688)">
       <use xlink:href="#TimesNewRomanPSMT-31" transform="translate(0 0.582813)"/>
       <use xlink:href="#TimesNewRomanPSMT-30" transform="translate(50 0.582813)"/>
       <use xlink:href="#TimesNewRomanPSMT-34" transform="translate(101.502813 60.695312) scale(0.7)"/>
      </g>
     </g>
    </g>
    <g id="xtick_87">
     <g id="text_24">
      <!-- $\mathdefault{10^{5}}$ -->
      <g style="fill: #262626" transform="translate(1517.971674 303.48716) scale(0.2688 -0.2688)">
       <use xlink:href="#TimesNewRomanPSMT-31" transform="translate(0 0.534375)"/>
       <use xlink:href="#TimesNewRomanPSMT-30" transform="translate(50 0.534375)"/>
       <use xlink:href="#TimesNewRomanPSMT-35" transform="translate(101.502813 60.646875) scale(0.7)"/>
      </g>
     </g>
    </g>
    <g id="xtick_88">
     <g id="text_25">
      <!-- $\mathdefault{10^{6}}$ -->
      <g style="fill: #262626" transform="translate(1625.968342 303.75596) scale(0.2688 -0.2688)">
       <use xlink:href="#TimesNewRomanPSMT-31" transform="translate(0 0.582813)"/>
       <use xlink:href="#TimesNewRomanPSMT-30" transform="translate(50 0.582813)"/>
       <use xlink:href="#TimesNewRomanPSMT-36" transform="translate(101.502813 60.695312) scale(0.7)"/>
      </g>
     </g>
    </g>
    <g id="xtick_89"/>
    <g id="xtick_90"/>
    <g id="xtick_91"/>
    <g id="xtick_92"/>
    <g id="xtick_93"/>
    <g id="xtick_94"/>
    <g id="xtick_95"/>
    <g id="xtick_96"/>
    <g id="xtick_97"/>
    <g id="xtick_98"/>
    <g id="xtick_99"/>
    <g id="xtick_100"/>
    <g id="xtick_101"/>
    <g id="xtick_102"/>
    <g id="xtick_103"/>
    <g id="xtick_104"/>
    <g id="xtick_105"/>
    <g id="xtick_106"/>
    <g id="xtick_107"/>
    <g id="xtick_108"/>
    <g id="xtick_109"/>
    <g id="xtick_110"/>
    <g id="xtick_111"/>
    <g id="xtick_112"/>
    <g id="xtick_113"/>
    <g id="xtick_114"/>
    <g id="text_26">
     <!-- #entries -->
     <g style="fill: #262626" transform="translate(1492.922513 334.50366) scale(0.3024 -0.3024)">
      <use xlink:href="#TimesNewRomanPSMT-23"/>
      <use xlink:href="#TimesNewRomanPSMT-65" transform="translate(50 0)"/>
      <use xlink:href="#TimesNewRomanPSMT-6e" transform="translate(94.384766 0)"/>
      <use xlink:href="#TimesNewRomanPSMT-74" transform="translate(144.384766 0)"/>
      <use xlink:href="#TimesNewRomanPSMT-72" transform="translate(172.167969 0)"/>
      <use xlink:href="#TimesNewRomanPSMT-69" transform="translate(205.46875 0)"/>
      <use xlink:href="#TimesNewRomanPSMT-65" transform="translate(233.251953 0)"/>
      <use xlink:href="#TimesNewRomanPSMT-73" transform="translate(277.636719 0)"/>
     </g>
    </g>
   </g>
   <g id="matplotlib.axis_8">
    <g id="ytick_8">
     <g id="text_27">
      <!-- 0 -->
      <g style="fill: #262626" transform="translate(1347.913526 279.77016) scale(0.2688 -0.2688)">
       <use xlink:href="#TimesNewRomanPSMT-30"/>
      </g>
     </g>
    </g>
    <g id="ytick_9">
     <g id="text_28">
      <!-- 200 -->
      <g style="fill: #262626" transform="translate(1321.033526 158.606129) scale(0.2688 -0.2688)">
       <use xlink:href="#TimesNewRomanPSMT-32"/>
       <use xlink:href="#TimesNewRomanPSMT-30" transform="translate(50 0)"/>
       <use xlink:href="#TimesNewRomanPSMT-30" transform="translate(100 0)"/>
      </g>
     </g>
    </g>
    <g id="text_29">
     <!-- tail-99 non-ex. query lat. (μs) -->
     <g style="fill: #262626" transform="translate(1310.67469 347.599723) rotate(-90) scale(0.2688 -0.2688)">
      <defs>
       <path id="TimesNewRomanPS-BoldMT-39" d="M 197 -88 
L 197 0 
Q 716 119 1077 350 
Q 1438 581 1648 922 
Q 1859 1263 1944 1706 
Q 1750 1606 1614 1567 
Q 1478 1528 1328 1528 
Q 847 1528 526 1875 
Q 206 2222 206 2825 
Q 206 3244 379 3592 
Q 553 3941 875 4133 
Q 1197 4325 1544 4325 
Q 1916 4325 2247 4112 
Q 2578 3900 2775 3497 
Q 2972 3094 2972 2578 
Q 2972 1909 2651 1296 
Q 2331 684 1697 314 
Q 1063 -56 197 -88 
z
M 1991 1969 
Q 2022 2319 2022 2584 
Q 2022 3153 1891 3644 
Q 1816 3916 1669 4044 
Q 1591 4113 1466 4113 
Q 1309 4113 1222 3978 
Q 1100 3794 1100 3275 
Q 1100 2409 1306 2081 
Q 1441 1869 1669 1869 
Q 1791 1869 1991 1969 
z
" transform="scale(0.015625)"/>
      </defs>
      <use xlink:href="#TimesNewRomanPS-BoldMT-74"/>
      <use xlink:href="#TimesNewRomanPS-BoldMT-61" transform="translate(33.300781 0)"/>
      <use xlink:href="#TimesNewRomanPS-BoldMT-69" transform="translate(83.300781 0)"/>
      <use xlink:href="#TimesNewRomanPS-BoldMT-6c" transform="translate(111.083984 0)"/>
      <use xlink:href="#TimesNewRomanPS-BoldMT-2d" transform="translate(138.867188 0)"/>
      <use xlink:href="#TimesNewRomanPS-BoldMT-39" transform="translate(172.167969 0)"/>
      <use xlink:href="#TimesNewRomanPS-BoldMT-39" transform="translate(222.167969 0)"/>
      <use xlink:href="#TimesNewRomanPS-BoldMT-20" transform="translate(272.167969 0)"/>
      <use xlink:href="#TimesNewRomanPS-BoldMT-6e" transform="translate(297.167969 0)"/>
      <use xlink:href="#TimesNewRomanPS-BoldMT-6f" transform="translate(352.783203 0)"/>
      <use xlink:href="#TimesNewRomanPS-BoldMT-6e" transform="translate(402.783203 0)"/>
      <use xlink:href="#TimesNewRomanPS-BoldMT-2d" transform="translate(458.398438 0)"/>
      <use xlink:href="#TimesNewRomanPS-BoldMT-65" transform="translate(491.699219 0)"/>
      <use xlink:href="#TimesNewRomanPS-BoldMT-78" transform="translate(536.083984 0)"/>
      <use xlink:href="#TimesNewRomanPS-BoldMT-2e" transform="translate(586.083984 0)"/>
      <use xlink:href="#TimesNewRomanPS-BoldMT-20" transform="translate(611.083984 0)"/>
      <use xlink:href="#TimesNewRomanPS-BoldMT-71" transform="translate(636.083984 0)"/>
      <use xlink:href="#TimesNewRomanPS-BoldMT-75" transform="translate(691.699219 0)"/>
      <use xlink:href="#TimesNewRomanPS-BoldMT-65" transform="translate(747.314453 0)"/>
      <use xlink:href="#TimesNewRomanPS-BoldMT-72" transform="translate(791.699219 0)"/>
      <use xlink:href="#TimesNewRomanPS-BoldMT-79" transform="translate(836.083984 0)"/>
      <use xlink:href="#TimesNewRomanPS-BoldMT-20" transform="translate(886.083984 0)"/>
      <use xlink:href="#TimesNewRomanPS-BoldMT-6c" transform="translate(911.083984 0)"/>
      <use xlink:href="#TimesNewRomanPS-BoldMT-61" transform="translate(938.867188 0)"/>
      <use xlink:href="#TimesNewRomanPS-BoldMT-74" transform="translate(988.867188 0)"/>
      <use xlink:href="#TimesNewRomanPS-BoldMT-2e" transform="translate(1022.167969 0)"/>
      <use xlink:href="#TimesNewRomanPS-BoldMT-20" transform="translate(1047.167969 0)"/>
      <use xlink:href="#TimesNewRomanPS-BoldMT-28" transform="translate(1072.167969 0)"/>
      <use xlink:href="#TimesNewRomanPS-BoldMT-3bc" transform="translate(1105.46875 0)"/>
      <use xlink:href="#TimesNewRomanPS-BoldMT-73" transform="translate(1162.158203 0)"/>
      <use xlink:href="#TimesNewRomanPS-BoldMT-29" transform="translate(1201.074219 0)"/>
     </g>
    </g>
   </g>
   <g id="line2d_16">
    <path d="M 1378.326689 233.742658 
L 1410.142063 246.49393 
L 1442.6523 250.984587 
L 1474.9872 215.347292 
L 1507.409523 246.480117 
L 1540.575136 212.621011 
L 1572.627572 206.766031 
L 1605.017167 73.680035 
L 1637.411955 99.817298 
L 1670.846016 115.76306 
L 1703.246837 125.694633 
" clip-path="url(#pd78c2ea11d)" style="fill: none; stroke-dasharray: 12.8,3.2,2,3.2; stroke-dashoffset: 0; stroke: #00441b; stroke-width: 2"/>
    <g clip-path="url(#pd78c2ea11d)">
     <use xlink:href="#m2787b16b0b" x="1378.326689" y="233.742658" style="fill-opacity: 0; stroke: #00441b"/>
     <use xlink:href="#m2787b16b0b" x="1410.142063" y="246.49393" style="fill-opacity: 0; stroke: #00441b"/>
     <use xlink:href="#m2787b16b0b" x="1442.6523" y="250.984587" style="fill-opacity: 0; stroke: #00441b"/>
     <use xlink:href="#m2787b16b0b" x="1474.9872" y="215.347292" style="fill-opacity: 0; stroke: #00441b"/>
     <use xlink:href="#m2787b16b0b" x="1507.409523" y="246.480117" style="fill-opacity: 0; stroke: #00441b"/>
     <use xlink:href="#m2787b16b0b" x="1540.575136" y="212.621011" style="fill-opacity: 0; stroke: #00441b"/>
     <use xlink:href="#m2787b16b0b" x="1572.627572" y="206.766031" style="fill-opacity: 0; stroke: #00441b"/>
     <use xlink:href="#m2787b16b0b" x="1605.017167" y="73.680035" style="fill-opacity: 0; stroke: #00441b"/>
     <use xlink:href="#m2787b16b0b" x="1637.411955" y="99.817298" style="fill-opacity: 0; stroke: #00441b"/>
     <use xlink:href="#m2787b16b0b" x="1670.846016" y="115.76306" style="fill-opacity: 0; stroke: #00441b"/>
     <use xlink:href="#m2787b16b0b" x="1703.246837" y="125.694633" style="fill-opacity: 0; stroke: #00441b"/>
    </g>
   </g>
   <g id="line2d_17">
    <path d="M 1378.326689 248.161299 
L 1410.142063 249.375362 
L 1442.6523 249.458753 
L 1474.9872 249.829697 
L 1507.409523 247.138916 
L 1540.575136 224.20614 
L 1572.627572 186.623132 
L 1605.017167 93.823495 
L 1637.411955 81.286804 
L 1670.846016 91.854579 
L 1703.246837 150.409702 
" clip-path="url(#pd78c2ea11d)" style="fill: none; stroke-dasharray: 7.4,3.2; stroke-dashoffset: 0; stroke: #006d2c; stroke-width: 2"/>
    <g clip-path="url(#pd78c2ea11d)">
     <use xlink:href="#m8ce64ab2c7" x="1378.326689" y="248.161299" style="fill-opacity: 0; stroke: #006d2c"/>
     <use xlink:href="#m8ce64ab2c7" x="1410.142063" y="249.375362" style="fill-opacity: 0; stroke: #006d2c"/>
     <use xlink:href="#m8ce64ab2c7" x="1442.6523" y="249.458753" style="fill-opacity: 0; stroke: #006d2c"/>
     <use xlink:href="#m8ce64ab2c7" x="1474.9872" y="249.829697" style="fill-opacity: 0; stroke: #006d2c"/>
     <use xlink:href="#m8ce64ab2c7" x="1507.409523" y="247.138916" style="fill-opacity: 0; stroke: #006d2c"/>
     <use xlink:href="#m8ce64ab2c7" x="1540.575136" y="224.20614" style="fill-opacity: 0; stroke: #006d2c"/>
     <use xlink:href="#m8ce64ab2c7" x="1572.627572" y="186.623132" style="fill-opacity: 0; stroke: #006d2c"/>
     <use xlink:href="#m8ce64ab2c7" x="1605.017167" y="93.823495" style="fill-opacity: 0; stroke: #006d2c"/>
     <use xlink:href="#m8ce64ab2c7" x="1637.411955" y="81.286804" style="fill-opacity: 0; stroke: #006d2c"/>
     <use xlink:href="#m8ce64ab2c7" x="1670.846016" y="91.854579" style="fill-opacity: 0; stroke: #006d2c"/>
     <use xlink:href="#m8ce64ab2c7" x="1703.246837" y="150.409702" style="fill-opacity: 0; stroke: #006d2c"/>
    </g>
   </g>
   <g id="line2d_18">
    <path d="M 1378.326689 252.969935 
L 1410.142063 248.837666 
L 1442.6523 251.404951 
L 1474.9872 250.768779 
L 1507.409523 252.704889 
L 1540.575136 250.952918 
L 1572.627572 230.761598 
L 1605.017167 146.134778 
L 1637.411955 170.154199 
L 1670.846016 196.486021 
L 1703.246837 204.636271 
" clip-path="url(#pd78c2ea11d)" style="fill: none; stroke: #238b45; stroke-width: 2; stroke-linecap: round"/>
    <g clip-path="url(#pd78c2ea11d)">
     <use xlink:href="#m9c90581fc4" x="1378.326689" y="252.969935" style="fill-opacity: 0; stroke: #238b45"/>
     <use xlink:href="#m9c90581fc4" x="1410.142063" y="248.837666" style="fill-opacity: 0; stroke: #238b45"/>
     <use xlink:href="#m9c90581fc4" x="1442.6523" y="251.404951" style="fill-opacity: 0; stroke: #238b45"/>
     <use xlink:href="#m9c90581fc4" x="1474.9872" y="250.768779" style="fill-opacity: 0; stroke: #238b45"/>
     <use xlink:href="#m9c90581fc4" x="1507.409523" y="252.704889" style="fill-opacity: 0; stroke: #238b45"/>
     <use xlink:href="#m9c90581fc4" x="1540.575136" y="250.952918" style="fill-opacity: 0; stroke: #238b45"/>
     <use xlink:href="#m9c90581fc4" x="1572.627572" y="230.761598" style="fill-opacity: 0; stroke: #238b45"/>
     <use xlink:href="#m9c90581fc4" x="1605.017167" y="146.134778" style="fill-opacity: 0; stroke: #238b45"/>
     <use xlink:href="#m9c90581fc4" x="1637.411955" y="170.154199" style="fill-opacity: 0; stroke: #238b45"/>
     <use xlink:href="#m9c90581fc4" x="1670.846016" y="196.486021" style="fill-opacity: 0; stroke: #238b45"/>
     <use xlink:href="#m9c90581fc4" x="1703.246837" y="204.636271" style="fill-opacity: 0; stroke: #238b45"/>
    </g>
   </g>
   <g id="line2d_19">
    <path d="M 1378.326689 254.258606 
L 1410.142063 252.943491 
L 1442.6523 255.910677 
L 1474.9872 256.811835 
L 1507.409523 252.521901 
L 1540.575136 258.827535 
L 1572.627572 222.672597 
L 1605.017167 213.266058 
L 1637.411955 202.912803 
L 1670.846016 206.803956 
L 1703.246837 212.030366 
" clip-path="url(#pd78c2ea11d)" style="fill: none; stroke-dasharray: 2,3.3; stroke-dashoffset: 0; stroke: #41ae76; stroke-width: 2"/>
    <g clip-path="url(#pd78c2ea11d)">
     <use xlink:href="#mbc14803b6c" x="1378.326689" y="254.258606" style="fill-opacity: 0; stroke: #41ae76"/>
     <use xlink:href="#mbc14803b6c" x="1410.142063" y="252.943491" style="fill-opacity: 0; stroke: #41ae76"/>
     <use xlink:href="#mbc14803b6c" x="1442.6523" y="255.910677" style="fill-opacity: 0; stroke: #41ae76"/>
     <use xlink:href="#mbc14803b6c" x="1474.9872" y="256.811835" style="fill-opacity: 0; stroke: #41ae76"/>
     <use xlink:href="#mbc14803b6c" x="1507.409523" y="252.521901" style="fill-opacity: 0; stroke: #41ae76"/>
     <use xlink:href="#mbc14803b6c" x="1540.575136" y="258.827535" style="fill-opacity: 0; stroke: #41ae76"/>
     <use xlink:href="#mbc14803b6c" x="1572.627572" y="222.672597" style="fill-opacity: 0; stroke: #41ae76"/>
     <use xlink:href="#mbc14803b6c" x="1605.017167" y="213.266058" style="fill-opacity: 0; stroke: #41ae76"/>
     <use xlink:href="#mbc14803b6c" x="1637.411955" y="202.912803" style="fill-opacity: 0; stroke: #41ae76"/>
     <use xlink:href="#mbc14803b6c" x="1670.846016" y="206.803956" style="fill-opacity: 0; stroke: #41ae76"/>
     <use xlink:href="#mbc14803b6c" x="1703.246837" y="212.030366" style="fill-opacity: 0; stroke: #41ae76"/>
    </g>
   </g>
   <g id="line2d_20">
    <path d="M 1378.326689 261.582759 
L 1410.142063 246.733835 
L 1442.6523 254.34445 
L 1474.9872 251.148719 
L 1507.409523 251.346792 
L 1540.575136 265.680739 
L 1572.627572 248.913515 
L 1605.017167 233.945941 
L 1637.411955 201.479009 
L 1670.846016 193.685375 
L 1703.246837 189.310778 
" clip-path="url(#pd78c2ea11d)" style="fill: none; stroke: #000000; stroke-width: 2; stroke-linecap: round"/>
    <g clip-path="url(#pd78c2ea11d)">
     <use xlink:href="#mf5c8e14b41" x="1378.326689" y="261.582759" style="fill-opacity: 0; stroke: #000000; stroke-linejoin: miter"/>
     <use xlink:href="#mf5c8e14b41" x="1410.142063" y="246.733835" style="fill-opacity: 0; stroke: #000000; stroke-linejoin: miter"/>
     <use xlink:href="#mf5c8e14b41" x="1442.6523" y="254.34445" style="fill-opacity: 0; stroke: #000000; stroke-linejoin: miter"/>
     <use xlink:href="#mf5c8e14b41" x="1474.9872" y="251.148719" style="fill-opacity: 0; stroke: #000000; stroke-linejoin: miter"/>
     <use xlink:href="#mf5c8e14b41" x="1507.409523" y="251.346792" style="fill-opacity: 0; stroke: #000000; stroke-linejoin: miter"/>
     <use xlink:href="#mf5c8e14b41" x="1540.575136" y="265.680739" style="fill-opacity: 0; stroke: #000000; stroke-linejoin: miter"/>
     <use xlink:href="#mf5c8e14b41" x="1572.627572" y="248.913515" style="fill-opacity: 0; stroke: #000000; stroke-linejoin: miter"/>
     <use xlink:href="#mf5c8e14b41" x="1605.017167" y="233.945941" style="fill-opacity: 0; stroke: #000000; stroke-linejoin: miter"/>
     <use xlink:href="#mf5c8e14b41" x="1637.411955" y="201.479009" style="fill-opacity: 0; stroke: #000000; stroke-linejoin: miter"/>
     <use xlink:href="#mf5c8e14b41" x="1670.846016" y="193.685375" style="fill-opacity: 0; stroke: #000000; stroke-linejoin: miter"/>
     <use xlink:href="#mf5c8e14b41" x="1703.246837" y="189.310778" style="fill-opacity: 0; stroke: #000000; stroke-linejoin: miter"/>
    </g>
   </g>
   <g id="patch_12">
    <path d="M 1370.853526 270.43776 
L 1370.853526 64.08 
" style="fill: none; stroke: #cccccc; stroke-width: 1.25; stroke-linejoin: miter; stroke-linecap: square"/>
   </g>
   <g id="patch_13">
    <path d="M 1370.853526 270.43776 
L 1710.72 270.43776 
" style="fill: none; stroke: #cccccc; stroke-width: 1.25; stroke-linejoin: miter; stroke-linecap: square"/>
   </g>
  </g>
  <g id="legend_1">
   <g id="line2d_21">
    <path d="M 319.790025 12.6 
L 350.030025 12.6 
L 380.270025 12.6 
" style="fill: none; stroke-dasharray: 12.8,3.2,2,3.2; stroke-dashoffset: 0; stroke: #00441b; stroke-width: 2"/>
    <g>
     <use xlink:href="#m2787b16b0b" x="350.030025" y="12.6" style="fill-opacity: 0; stroke: #00441b"/>
    </g>
   </g>
   <g id="text_30">
    <!-- Sphinx -->
    <g style="fill: #262626" transform="translate(404.462025 23.184) scale(0.3024 -0.3024)">
     <defs>
      <path id="TimesNewRomanPSMT-53" d="M 2934 4334 
L 2934 2869 
L 2819 2869 
Q 2763 3291 2617 3541 
Q 2472 3791 2203 3937 
Q 1934 4084 1647 4084 
Q 1322 4084 1109 3886 
Q 897 3688 897 3434 
Q 897 3241 1031 3081 
Q 1225 2847 1953 2456 
Q 2547 2138 2764 1967 
Q 2981 1797 3098 1565 
Q 3216 1334 3216 1081 
Q 3216 600 2842 251 
Q 2469 -97 1881 -97 
Q 1697 -97 1534 -69 
Q 1438 -53 1133 45 
Q 828 144 747 144 
Q 669 144 623 97 
Q 578 50 556 -97 
L 441 -97 
L 441 1356 
L 556 1356 
Q 638 900 775 673 
Q 913 447 1195 297 
Q 1478 147 1816 147 
Q 2206 147 2432 353 
Q 2659 559 2659 841 
Q 2659 997 2573 1156 
Q 2488 1316 2306 1453 
Q 2184 1547 1640 1851 
Q 1097 2156 867 2337 
Q 638 2519 519 2737 
Q 400 2956 400 3219 
Q 400 3675 750 4004 
Q 1100 4334 1641 4334 
Q 1978 4334 2356 4169 
Q 2531 4091 2603 4091 
Q 2684 4091 2736 4139 
Q 2788 4188 2819 4334 
L 2934 4334 
z
" transform="scale(0.015625)"/>
      <path id="TimesNewRomanPSMT-70" d="M -6 2578 
L 875 2934 
L 994 2934 
L 994 2266 
Q 1216 2644 1439 2795 
Q 1663 2947 1909 2947 
Q 2341 2947 2628 2609 
Q 2981 2197 2981 1534 
Q 2981 794 2556 309 
Q 2206 -88 1675 -88 
Q 1444 -88 1275 -22 
Q 1150 25 994 166 
L 994 -706 
Q 994 -1000 1030 -1079 
Q 1066 -1159 1155 -1206 
Q 1244 -1253 1478 -1253 
L 1478 -1369 
L -22 -1369 
L -22 -1253 
L 56 -1253 
Q 228 -1256 350 -1188 
Q 409 -1153 442 -1076 
Q 475 -1000 475 -688 
L 475 2019 
Q 475 2297 450 2372 
Q 425 2447 370 2484 
Q 316 2522 222 2522 
Q 147 2522 31 2478 
L -6 2578 
z
M 994 2081 
L 994 1013 
Q 994 666 1022 556 
Q 1066 375 1236 237 
Q 1406 100 1666 100 
Q 1978 100 2172 344 
Q 2425 663 2425 1241 
Q 2425 1897 2138 2250 
Q 1938 2494 1663 2494 
Q 1513 2494 1366 2419 
Q 1253 2363 994 2081 
z
" transform="scale(0.015625)"/>
      <path id="TimesNewRomanPSMT-68" d="M 1041 4444 
L 1041 2350 
Q 1388 2731 1591 2839 
Q 1794 2947 1997 2947 
Q 2241 2947 2416 2812 
Q 2591 2678 2675 2391 
Q 2734 2191 2734 1659 
L 2734 647 
Q 2734 375 2778 275 
Q 2809 200 2884 156 
Q 2959 113 3159 113 
L 3159 0 
L 1753 0 
L 1753 113 
L 1819 113 
Q 2019 113 2097 173 
Q 2175 234 2206 353 
Q 2216 403 2216 647 
L 2216 1659 
Q 2216 2128 2167 2275 
Q 2119 2422 2012 2495 
Q 1906 2569 1756 2569 
Q 1603 2569 1437 2487 
Q 1272 2406 1041 2159 
L 1041 647 
Q 1041 353 1073 281 
Q 1106 209 1195 161 
Q 1284 113 1503 113 
L 1503 0 
L 84 0 
L 84 113 
Q 275 113 384 172 
Q 447 203 484 290 
Q 522 378 522 647 
L 522 3238 
Q 522 3728 498 3840 
Q 475 3953 426 3993 
Q 378 4034 297 4034 
Q 231 4034 84 3984 
L 41 4094 
L 897 4444 
L 1041 4444 
z
" transform="scale(0.015625)"/>
      <path id="TimesNewRomanPSMT-78" d="M 84 2863 
L 1431 2863 
L 1431 2747 
Q 1303 2747 1251 2703 
Q 1200 2659 1200 2588 
Q 1200 2513 1309 2356 
Q 1344 2306 1413 2200 
L 1616 1875 
L 1850 2200 
Q 2075 2509 2075 2591 
Q 2075 2656 2022 2701 
Q 1969 2747 1850 2747 
L 1850 2863 
L 2819 2863 
L 2819 2747 
Q 2666 2738 2553 2663 
Q 2400 2556 2134 2200 
L 1744 1678 
L 2456 653 
Q 2719 275 2831 198 
Q 2944 122 3122 113 
L 3122 0 
L 1772 0 
L 1772 113 
Q 1913 113 1991 175 
Q 2050 219 2050 291 
Q 2050 363 1850 653 
L 1431 1266 
L 972 653 
Q 759 369 759 316 
Q 759 241 829 180 
Q 900 119 1041 113 
L 1041 0 
L 106 0 
L 106 113 
Q 219 128 303 191 
Q 422 281 703 653 
L 1303 1450 
L 759 2238 
Q 528 2575 401 2661 
Q 275 2747 84 2747 
L 84 2863 
z
" transform="scale(0.015625)"/>
     </defs>
     <use xlink:href="#TimesNewRomanPSMT-53"/>
     <use xlink:href="#TimesNewRomanPSMT-70" transform="translate(55.615234 0)"/>
     <use xlink:href="#TimesNewRomanPSMT-68" transform="translate(105.615234 0)"/>
     <use xlink:href="#TimesNewRomanPSMT-69" transform="translate(155.615234 0)"/>
     <use xlink:href="#TimesNewRomanPSMT-6e" transform="translate(183.398438 0)"/>
     <use xlink:href="#TimesNewRomanPSMT-78" transform="translate(233.398438 0)"/>
    </g>
   </g>
   <g id="line2d_22">
    <path d="M 550.63935 12.6 
L 580.87935 12.6 
L 611.11935 12.6 
" style="fill: none; stroke-dasharray: 7.4,3.2; stroke-dashoffset: 0; stroke: #006d2c; stroke-width: 2"/>
    <g>
     <use xlink:href="#m8ce64ab2c7" x="580.87935" y="12.6" style="fill-opacity: 0; stroke: #006d2c"/>
    </g>
   </g>
   <g id="text_31">
    <!-- Sphinx-2 -->
    <g style="fill: #262626" transform="translate(635.31135 23.184) scale(0.3024 -0.3024)">
     <defs>
      <path id="TimesNewRomanPSMT-2d" d="M 259 1672 
L 1875 1672 
L 1875 1200 
L 259 1200 
L 259 1672 
z
" transform="scale(0.015625)"/>
     </defs>
     <use xlink:href="#TimesNewRomanPSMT-53"/>
     <use xlink:href="#TimesNewRomanPSMT-70" transform="translate(55.615234 0)"/>
     <use xlink:href="#TimesNewRomanPSMT-68" transform="translate(105.615234 0)"/>
     <use xlink:href="#TimesNewRomanPSMT-69" transform="translate(155.615234 0)"/>
     <use xlink:href="#TimesNewRomanPSMT-6e" transform="translate(183.398438 0)"/>
     <use xlink:href="#TimesNewRomanPSMT-78" transform="translate(233.398438 0)"/>
     <use xlink:href="#TimesNewRomanPSMT-2d" transform="translate(283.398438 0)"/>
     <use xlink:href="#TimesNewRomanPSMT-32" transform="translate(316.699219 0)"/>
    </g>
   </g>
   <g id="line2d_23">
    <path d="M 806.67765 12.6 
L 836.91765 12.6 
L 867.15765 12.6 
" style="fill: none; stroke: #238b45; stroke-width: 2; stroke-linecap: round"/>
    <g>
     <use xlink:href="#m9c90581fc4" x="836.91765" y="12.6" style="fill-opacity: 0; stroke: #238b45"/>
    </g>
   </g>
   <g id="text_32">
    <!-- Sphinx-4 -->
    <g style="fill: #262626" transform="translate(891.34965 23.184) scale(0.3024 -0.3024)">
     <use xlink:href="#TimesNewRomanPSMT-53"/>
     <use xlink:href="#TimesNewRomanPSMT-70" transform="translate(55.615234 0)"/>
     <use xlink:href="#TimesNewRomanPSMT-68" transform="translate(105.615234 0)"/>
     <use xlink:href="#TimesNewRomanPSMT-69" transform="translate(155.615234 0)"/>
     <use xlink:href="#TimesNewRomanPSMT-6e" transform="translate(183.398438 0)"/>
     <use xlink:href="#TimesNewRomanPSMT-78" transform="translate(233.398438 0)"/>
     <use xlink:href="#TimesNewRomanPSMT-2d" transform="translate(283.398438 0)"/>
     <use xlink:href="#TimesNewRomanPSMT-34" transform="translate(316.699219 0)"/>
    </g>
   </g>
   <g id="line2d_24">
    <path d="M 1062.71595 12.6 
L 1092.95595 12.6 
L 1123.19595 12.6 
" style="fill: none; stroke-dasharray: 2,3.3; stroke-dashoffset: 0; stroke: #41ae76; stroke-width: 2"/>
    <g>
     <use xlink:href="#mbc14803b6c" x="1092.95595" y="12.6" style="fill-opacity: 0; stroke: #41ae76"/>
    </g>
   </g>
   <g id="text_33">
    <!-- Sphinx-6 -->
    <g style="fill: #262626" transform="translate(1147.38795 23.184) scale(0.3024 -0.3024)">
     <use xlink:href="#TimesNewRomanPSMT-53"/>
     <use xlink:href="#TimesNewRomanPSMT-70" transform="translate(55.615234 0)"/>
     <use xlink:href="#TimesNewRomanPSMT-68" transform="translate(105.615234 0)"/>
     <use xlink:href="#TimesNewRomanPSMT-69" transform="translate(155.615234 0)"/>
     <use xlink:href="#TimesNewRomanPSMT-6e" transform="translate(183.398438 0)"/>
     <use xlink:href="#TimesNewRomanPSMT-78" transform="translate(233.398438 0)"/>
     <use xlink:href="#TimesNewRomanPSMT-2d" transform="translate(283.398438 0)"/>
     <use xlink:href="#TimesNewRomanPSMT-36" transform="translate(316.699219 0)"/>
    </g>
   </g>
   <g id="line2d_25">
    <path d="M 1318.75425 12.6 
L 1348.99425 12.6 
L 1379.23425 12.6 
" style="fill: none; stroke: #000000; stroke-width: 2; stroke-linecap: round"/>
    <g>
     <use xlink:href="#mf5c8e14b41" x="1348.99425" y="12.6" style="fill-opacity: 0; stroke: #000000; stroke-linejoin: miter"/>
    </g>
   </g>
   <g id="text_34">
    <!-- Aleph -->
    <g style="fill: #262626" transform="translate(1403.42625 23.184) scale(0.3024 -0.3024)">
     <defs>
      <path id="TimesNewRomanPSMT-41" d="M 2928 1419 
L 1288 1419 
L 1000 750 
Q 894 503 894 381 
Q 894 284 986 211 
Q 1078 138 1384 116 
L 1384 0 
L 50 0 
L 50 116 
Q 316 163 394 238 
Q 553 388 747 847 
L 2238 4334 
L 2347 4334 
L 3822 809 
Q 4000 384 4145 257 
Q 4291 131 4550 116 
L 4550 0 
L 2878 0 
L 2878 116 
Q 3131 128 3220 200 
Q 3309 272 3309 375 
Q 3309 513 3184 809 
L 2928 1419 
z
M 2841 1650 
L 2122 3363 
L 1384 1650 
L 2841 1650 
z
" transform="scale(0.015625)"/>
      <path id="TimesNewRomanPSMT-6c" d="M 1184 4444 
L 1184 647 
Q 1184 378 1223 290 
Q 1263 203 1344 158 
Q 1425 113 1647 113 
L 1647 0 
L 244 0 
L 244 113 
Q 441 113 512 153 
Q 584 194 625 287 
Q 666 381 666 647 
L 666 3247 
Q 666 3731 644 3842 
Q 622 3953 573 3993 
Q 525 4034 450 4034 
Q 369 4034 244 3984 
L 191 4094 
L 1044 4444 
L 1184 4444 
z
" transform="scale(0.015625)"/>
     </defs>
     <use xlink:href="#TimesNewRomanPSMT-41"/>
     <use xlink:href="#TimesNewRomanPSMT-6c" transform="translate(72.216797 0)"/>
     <use xlink:href="#TimesNewRomanPSMT-65" transform="translate(100 0)"/>
     <use xlink:href="#TimesNewRomanPSMT-70" transform="translate(144.384766 0)"/>
     <use xlink:href="#TimesNewRomanPSMT-68" transform="translate(194.384766 0)"/>
    </g>
   </g>
  </g>
 </g>
 <defs>
  <clipPath id="p864ab92876">
   <rect x="87.80087" y="64.08" width="339.866474" height="206.35776"/>
  </clipPath>
  <clipPath id="pf630b6faf4">
   <rect x="515.485088" y="64.08" width="339.866474" height="206.35776"/>
  </clipPath>
  <clipPath id="p47b1507b0e">
   <rect x="943.169307" y="64.08" width="339.866474" height="206.35776"/>
  </clipPath>
  <clipPath id="pd78c2ea11d">
   <rect x="1370.853526" y="64.08" width="339.866474" height="206.35776"/>
  </clipPath>
 </defs>
</svg>
